<svg xmlns="http://www.w3.org/2000/svg" width="790" height="80" viewBox="0 0 790 80">
  <path fill="#EDEDED" fill-rule="evenodd" d="M355.832678,130 L366.796626,131.664696 L368.064802,132.057043 L369.342026,132.544 L370.56496,133.035826 L371.78859,133.622609 L374.036088,134.84487 L375.065524,135.530435 L376.139855,136.315826 L377.119176,137.05113 L378.049079,137.831304 L379.813877,139.546087 L381.280771,141.354783 L381.962537,142.288348 L382.598714,143.267478 L383.090811,144.241739 L383.528965,145.270261 L383.921181,146.298783 L384.264326,147.377043 L384.508286,148.455304 L384.706656,149.529043 L384.801317,150.607304 L384.851084,151.734957 L365.911617,151.734957 L365.767189,150.855304 L365.572996,150.02087 L365.225326,149.235478 L364.887053,148.505043 L364.350062,147.769739 L363.808546,147.083826 L363.12678,146.447652 L362.390722,145.906783 L361.510934,145.369391 L360.680216,144.931826 L359.750313,144.539478 L358.865652,144.291478 L357.885982,144.047652 L356.911533,143.903652 L355.832678,143.804174 L353.629727,143.804174 L352.605163,143.903652 L351.576075,144.047652 L350.695938,144.34087 L349.815802,144.634087 L349.03485,145.026783 L348.249374,145.46887 L347.61285,146.055304 L346.877489,146.596522 L346.340498,147.228174 L345.848401,147.86887 L345.50978,148.599304 L345.166286,149.289739 L345.017683,150.070261 L344.918498,150.855304 L344.968264,151.734957 L344.968264,152.614957 L345.116868,153.498783 L345.216401,153.886609 L345.410595,154.328696 L345.848401,155.158957 L346.389916,155.894261 L347.125626,156.629565 L347.956344,157.265391 L348.985084,157.951304 L349.617084,158.343652 L350.447454,158.732174 L351.381881,159.128696 L352.410969,159.516522 L354.708581,160.301565 L356.026524,160.694261 L357.448524,161.082087 L367.67189,163.969391 L370.217639,164.853565 L371.445445,165.345391 L372.619308,165.882087 L374.771797,166.910609 L375.796709,167.497391 L376.776031,168.133217 L378.049079,168.967652 L379.272361,169.847304 L380.400634,170.727304 L381.474965,171.656348 L382.40452,172.590261 L383.284656,173.564522 L384.020366,174.548174 L384.756423,175.621913 L385.293414,176.650435 L385.780987,177.773565 L386.223317,178.950957 L386.611357,180.173217 L386.855317,181.400696 L387.053687,182.722435 L387.202639,184.044174 L387.247881,185.46087 L387.202639,186.638261 L387.053687,187.910261 L386.855317,189.088 L386.611357,190.36 L386.223317,191.53287 L385.780987,192.710261 L385.293414,193.883478 L384.756423,195.06087 L384.07048,196.08487 L383.677568,196.571826 L383.47885,196.820522 L383.334423,197.117913 L382.549295,198.092174 L382.111141,198.588522 L381.718577,199.116522 L380.788674,200.00487 L380.301449,200.438261 L379.863643,200.930087 L378.834207,201.813913 L378.540828,202.008 L378.391877,202.102957 L378.292692,202.251826 L377.805467,202.747826 L377.611273,202.788174 L377.461974,202.887652 L377.168943,203.090783 L376.581837,203.478609 L375.408322,204.263652 L374.185388,204.949217 L372.962106,205.626087 L371.639291,206.217043 L370.317172,206.808 L368.949115,207.290783 L367.577229,207.786783 L366.010802,208.174957 L364.494489,208.572174 L362.928062,208.914783 L361.411401,209.203478 L359.795555,209.397217 L358.233652,209.546087 L356.617806,209.645565 L355.051379,209.699478 L353.435533,209.645565 L351.869454,209.546087 L348.83648,209.257391 L345.848401,208.666087 L344.381159,208.323826 L342.964031,207.935652 L340.075137,206.947826 L338.703251,206.365565 L337.434727,205.774609 L336.11226,205.089391 L334.888978,204.457391 L332.591366,202.982261 L331.41785,202.102957 L330.388762,201.272696 L329.409093,200.33913 L328.529304,199.45913 L327.644643,198.48 L326.863692,197.550957 L326.127982,196.526609 L325.540877,195.547826 L324.909225,194.419826 L324.417128,193.346435 L323.979322,192.169043 L323.636176,191.09113 L323.293031,189.917913 L323.144079,188.744696 L323,187.517913 L323,186.345043 L342.178555,186.345043 L342.232846,187.369391 L342.278088,187.86087 L342.426692,188.397565 L342.72007,189.376696 L342.914264,189.818435 L343.207643,190.306087 L343.744634,191.140522 L344.480344,191.925565 L345.311062,192.660522 L346.34015,193.391652 L347.270053,193.93287 L348.344383,194.469565 L349.42289,194.912 L350.64652,195.304348 L351.819687,195.547826 L353.142502,195.741565 L354.464969,195.890783 L355.931863,195.936 L357.204564,195.890783 L358.473088,195.741565 L359.06437,195.597565 L359.700546,195.498087 L360.874062,195.205217 L361.948392,194.762783 L363.027595,194.321043 L363.514819,194.027826 L363.614352,193.93287 L363.663771,193.883478 L363.75878,193.883478 L364.056335,193.784 L365.03148,193.148174 L365.866374,192.36313 L366.254762,191.970435 L366.647326,191.632 L366.941053,191.190261 L367.28385,190.797565 L367.870608,190.017391 L368.263172,189.137391 L368.601793,188.253217 L368.750744,187.274435 L368.800511,186.782609 L368.800511,186.53913 L368.850278,186.345043 L368.750744,184.923826 L368.457366,183.651826 L368.019559,182.429217 L367.432454,181.301565 L366.647326,180.173217 L365.672181,179.194435 L364.543907,178.265739 L363.271207,177.48487 L362.291885,176.893913 L361.217555,176.406957 L359.993925,175.91513 L358.62204,175.427826 L357.05596,174.936 L355.345106,174.449043 L353.4853,173.957217 L351.526308,173.470261 L342.327507,170.677565 L334.351639,166.373913 L333.422084,165.58887 L332.591366,164.803826 L331.756471,163.969391 L331.070529,163.18887 L330.338996,162.304696 L329.752586,161.424696 L329.16548,160.495304 L328.673383,159.566261 L327.69441,157.608348 L327.057537,155.650783 L326.620079,153.69287 L326.520198,151.734957 L326.669498,149.384696 L327.107304,147.182957 L327.843013,145.026783 L328.280819,144.002783 L328.917344,143.01913 L330.140626,141.111304 L330.826916,140.181913 L331.612044,139.34713 L332.392996,138.46713 L333.273132,137.682435 L334.203035,136.901913 L335.231775,136.216348 L336.211445,135.431304 L337.285427,134.750609 L339.587912,133.52313 L341.984361,132.44487 L344.579877,131.664348 L355.832678,130 Z M430.069326,148.599443 L432.908802,148.649183 L434.276163,148.698922 L435.693639,148.847791 L438.433582,149.1904 L441.173177,149.727443 L443.818111,150.36327 L446.413626,151.19353 L448.954851,152.122922 L451.5006,153.250574 L453.897397,154.477704 L456.149767,155.8944 L458.203419,157.31527 L460.112644,158.930226 L461.778256,160.54553 L463.344683,162.354226 L464.712044,164.26727 L465.88556,166.274574 L449.983939,166.274574 L449.054036,165.440139 L448.074714,164.659617 L447.045626,163.924313 L446.021062,163.288139 L444.847547,162.602574 L443.669507,162.015791 L442.445877,161.425183 L441.173177,160.937878 L438.433582,160.103096 L435.693639,159.517009 L434.276163,159.27353 L432.908802,159.173704 L430.164335,159.074574 L420.477961,160.594922 L418.270833,161.425183 L416.216833,162.453704 L414.307608,163.631096 L412.497569,164.998052 L410.836481,166.418922 L409.464247,167.93927 L408.191547,169.554226 L407.216749,171.313878 L406.336613,173.172313 L405.744983,175.134748 L405.402185,177.092661 L405.302652,179.149704 L405.302652,180.029357 L405.402185,180.9584 L405.794749,182.817183 L406.03871,183.701357 L406.386031,184.626226 L407.31141,186.48953 L407.749216,187.323965 L408.340498,188.203617 L408.927256,188.984139 L409.613547,189.818574 L410.294965,190.553878 L411.080441,191.3344 L412.746053,192.805009 L413.576423,193.441183 L414.506326,194.077357 L416.415551,195.254748 L418.419437,196.278748 L419.448873,196.720835 L420.572622,197.212661 L422.924525,197.848835 L425.320974,198.335791 L427.767538,198.63353 L430.308763,198.728139 L431.585987,198.68327 L432.908802,198.588661 L435.449679,198.2864 L436.672961,197.997704 L437.946009,197.695096 L440.392573,197.018574 L441.516322,196.526748 L442.694362,196.034922 L443.768692,195.498226 L444.942207,194.911443 L446.021062,194.226226 L447.144811,193.540313 L447.632384,193.147965 L447.875996,192.954226 L448.173899,192.805009 L449.24823,192.019965 L465.542763,192.019965 L464.956005,192.899617 L464.369247,193.83353 L463.682956,194.713183 L463.489111,194.911443 L463.389926,195.0064 L463.344683,195.155617 L463.04678,195.642574 L462.653868,196.034922 L462.460022,196.23353 L462.365014,196.332661 L462.315595,196.472835 L461.579538,197.357009 L460.749168,198.142052 L460.306837,198.5344 L459.91845,198.976487 L459.426701,199.319096 L458.988895,199.70727 L458.058992,200.491965 L457.029904,201.177878 L456.736525,201.326748 L456.492912,201.520487 L456.000815,201.908661 L455.414058,202.201878 L455.120679,202.350748 L454.876719,202.544835 L453.75297,203.2304 L451.401415,204.506922 L450.128366,205.043965 L449.789745,205.143443 L449.491842,205.291965 L448.905084,205.585183 L447.632384,206.077009 L446.413626,206.559791 L445.091159,206.947617 L443.818111,207.344835 L441.272362,208.0304 L439.900128,208.269704 L439.21871,208.368835 L439.024516,208.368835 L438.875912,208.418574 L438.577661,208.517704 L435.937252,208.914574 L433.197657,209.108661 L430.462238,209.20327 L428.448956,209.153878 L426.494489,209.00953 L424.535846,208.815443 L422.626274,208.571617 L420.671807,208.224487 L418.812348,207.831791 L416.952542,207.344835 L415.142503,206.808139 L413.377705,206.122226 L411.716965,205.432139 L410.100771,204.701009 L408.534344,203.915965 L406.968265,203.036661 L405.50137,202.157009 L404.034476,201.223096 L402.662243,200.244313 L401.3443,199.115965 L400.116494,197.997704 L398.947503,196.819965 L397.918415,195.642574 L396.889326,194.375096 L395.959423,193.098226 L395.079287,191.776487 L394.343578,190.504487 L393.60752,189.0384 L392.975868,187.617183 L392.045965,184.680139 L391.70282,183.159791 L391.459207,181.694052 L391.310256,178.657878 L391.459207,175.621704 L391.70282,174.155965 L392.045965,172.68953 L392.975868,169.797704 L393.60752,168.376835 L394.343578,167.005357 L395.959423,164.317009 L396.889326,163.040139 L397.963309,161.86727 L398.992745,160.644661 L400.215679,159.517009 L402.811194,157.409878 L404.133661,156.336139 L405.551137,155.406748 L408.534692,153.693009 L410.051353,152.907965 L411.667199,152.222052 L415.043318,150.999443 L416.803591,150.36327 L418.618155,149.926052 L422.382661,149.1904 L426.151692,148.748661 L430.069326,148.599443 Z M628.15323,149.5784 L628.15323,185.952313 L628.252763,190.017357 L628.397191,191.041009 L628.695094,192.020139 L629.1329,192.899791 L629.669891,193.783965 L630.013037,194.275791 L630.455367,194.812487 L631.380746,195.836487 L631.872843,196.233704 L632.4596,196.675443 L633.682534,197.455965 L639.60475,198.728313 L645.034869,197.69527 L645.621627,197.356835 L646.208385,197.063617 L646.7499,196.675443 L646.99386,196.472661 L647.286891,196.332835 L647.481085,196.084835 L647.725045,195.8904 L648.216794,195.4984 L648.410988,195.254574 L648.6546,195.060835 L649.096931,194.663617 L649.39031,194.176661 L649.39031,194.027791 L649.440076,194.027791 L649.539261,193.933183 L649.733455,193.734226 L650.026834,193.19753 L650.320213,192.710226 L650.708252,191.631965 L650.857552,191.041009 L650.90697,190.747791 L651.006504,190.504313 L651.250116,185.952313 L651.250116,149.5784 L665.247037,149.5784 L665.247037,185.952313 L665.147852,188.2984 L665.048319,189.4264 L664.9989,190.504313 L664.804706,191.483443 L664.660279,192.462226 L664.461561,193.391617 L664.267715,194.275791 L663.874803,195.304313 L663.486763,196.332835 L662.995015,197.262226 L662.453151,198.241009 L661.821151,199.116139 L661.184627,200.005183 L660.449266,200.789878 L660.056354,201.178052 L659.86216,201.371791 L659.762975,201.466748 L659.717733,201.520661 L659.717733,201.620139 L659.176217,202.007965 L658.688644,202.44553 L657.709323,203.284487 L656.630468,204.015617 L655.556138,204.746052 L654.382622,205.39127 L653.209107,206.022922 L651.936059,206.614226 L650.708252,207.195791 L649.340891,207.637878 L647.973182,208.030574 L646.600948,208.368661 L645.233239,208.6664 L642.394111,209.054226 L640.972459,209.153704 L639.60475,209.203443 L638.232517,209.153704 L636.964341,209.054226 L634.319059,208.6664 L632.946825,208.368661 L631.678649,208.030574 L630.306415,207.637878 L629.033715,207.195791 L626.537385,206.122052 L625.363869,205.531096 L624.285363,204.949183 L622.181944,203.573183 L621.202274,202.842748 L620.322138,202.102922 L619.347341,201.22327 L618.512098,200.339096 L617.731495,199.413878 L617.094622,198.534226 L616.458446,197.550922 L615.966349,196.571791 L615.478777,195.547791 L615.135979,194.569009 L614.8426,193.684835 L614.648407,192.804835 L614.454561,191.826052 L614.355028,190.79753 L614.206076,189.674052 L614.15631,188.497009 L614.111415,185.952313 L614.111415,149.5784 L628.15323,149.5784 Z M842.04406,148.608522 L844.043769,148.707652 L847.957227,149.150087 L849.816685,149.443304 L851.730782,149.835652 L853.590241,150.277739 L855.494941,150.864522 L857.214844,151.450609 L858.925699,152.131652 L860.536672,152.817565 L862.147994,153.652 L863.664655,154.486783 L865.181315,155.416174 L866.598443,156.345217 L868.015919,157.418957 L869.293492,158.447478 L870.512249,159.575478 L871.694813,160.70313 L872.814038,161.925739 L873.793359,163.148348 L874.727787,164.420348 L875.607923,165.742087 L876.438641,167.163304 L877.075166,168.534435 L877.711342,170.005391 L878.248681,171.471478 L878.691011,172.942087 L879.034157,174.408174 L879.282293,175.924 L879.431245,177.444348 L879.476139,179.009913 L879.431245,180.480174 L879.282293,182.045739 L879.034157,183.516348 L878.691011,185.081913 L878.248681,186.552174 L877.711342,188.018609 L877.368544,188.704174 L877.07969,189.439478 L876.348157,190.910435 L875.508738,192.182435 L874.63765,193.504174 L874.145901,194.090609 L873.897417,194.383826 L873.703223,194.726783 L872.678659,195.998783 L872.087377,196.535478 L871.550386,197.126783 L870.37687,198.299652 L869.153589,199.373391 L867.885412,200.501043 L866.467589,201.479826 L866.070848,201.673913 L865.876655,201.768522 L865.781994,201.82313 L865.727703,201.917739 L865.050461,202.409217 L863.534148,203.28887 L862.017487,204.16887 L861.868536,204.16887 L861.773527,204.214087 L861.580029,204.308696 L861.182593,204.511478 L860.397117,204.899304 L860.257214,204.899304 L860.162205,204.953913 L859.959311,205.048522 L859.571271,205.242609 L858.785796,205.630435 L857.128884,206.275304 L856.249095,206.564 L856.099796,206.564 L856.005483,206.618609 L855.810941,206.71287 L855.414201,206.907304 L853.509152,207.389739 L851.649694,207.881565 L849.735597,208.269391 L847.876139,208.612348 L845.917148,208.860348 L844.012448,209.054435 L842.053456,209.149043 L840.094465,209.203304 L838.086056,209.149043 L836.127064,209.054435 L834.168073,208.860348 L832.308267,208.612348 L830.349276,208.269391 L828.48947,207.881565 L824.824496,206.902435 L823.060047,206.266609 L821.394434,205.621391 L819.737522,204.890609 L818.166919,204.159478 L816.596315,203.280174 L815.133945,202.400522 L813.671227,201.466609 L812.339712,200.487826 L810.972351,199.359826 L809.749069,198.286435 L808.530311,197.113217 L807.496351,195.985217 L806.422368,194.713217 L805.496989,193.490609 L804.616853,192.16887 L803.876619,190.896522 L803.091144,189.426261 L802.454967,188.009565 L801.917628,186.543478 L801.475298,185.072522 L801.132152,183.507304 L800.893064,182.036696 L800.744113,180.471478 L800.69887,179.000522 L800.838774,175.914957 L801.08691,174.399478 L801.430404,172.933043 L802.355434,169.996348 L802.991959,168.525739 L803.732192,167.154261 L804.463377,165.733391 L805.343862,164.411304 L807.343223,161.916696 L808.376835,160.694087 L809.600117,159.566435 L810.818527,158.438435 L812.195285,157.409913 L812.194937,157.409913 L813.522276,156.345217 L814.984646,155.416174 L816.455716,154.486783 L818.017967,153.652 L819.588571,152.817565 L821.253835,152.131652 L822.910399,151.450609 L824.724963,150.864522 L828.390285,149.835652 L832.163492,149.150087 L836.023007,148.707652 L840.085417,148.608522 L842.04406,148.608522 Z M691.273152,149.587478 L701.59605,149.830957 L711.431376,151.888348 L712.559997,152.325565 L713.638504,152.86713 L714.66794,153.404174 L715.697028,154.089739 L716.626583,154.775304 L717.50672,155.555826 L718.341962,156.390609 L719.172332,157.319652 L719.808856,158.199304 L720.400138,159.078957 L720.883187,159.958957 L721.325517,160.937739 L721.614372,161.86713 L721.862508,162.845913 L722.01146,163.825043 L722.056702,164.853565 L722.006936,165.746783 L721.912275,166.626435 L721.717733,167.46087 L721.514839,168.340522 L721.225984,169.125565 L721.03179,169.517913 L720.93713,169.712348 L720.882839,169.806609 L720.882839,169.955826 L720.494799,170.69113 L720.052469,171.471304 L719.858275,171.620174 L719.709323,171.814261 L719.420469,172.206957 L718.783944,172.892522 L718.391381,173.185739 L718.193011,173.334609 L718.048583,173.528348 L717.655671,173.821565 L717.461826,173.970783 L717.31705,174.164522 L716.482156,174.651826 L715.651786,175.143652 L714.771649,175.585391 L713.841746,175.973565 L715.258874,176.316522 L716.67635,176.803478 L717.998817,177.345043 L719.217574,178.030957 L720.345848,178.716174 L721.420178,179.497043 L722.3995,180.331478 L723.333927,181.310261 L724.06546,182.244174 L724.796297,183.222957 L725.333636,184.251478 L725.870627,185.379478 L726.213773,186.457739 L726.511676,187.630609 L726.651579,188.853217 L726.746588,190.125217 L726.701345,191.104348 L726.606337,191.591652 L726.552394,191.690783 L726.552394,192.128348 L726.3582,193.10713 L726.110063,194.086261 L725.91587,194.528348 L725.766918,195.015652 L725.378878,195.994435 L724.886781,196.874087 L724.349442,197.853217 L723.672548,198.692174 L722.986605,199.522435 L722.20113,200.307478 L721.415654,201.137043 L720.932605,201.480348 L720.490275,201.87687 L719.998526,202.210783 L719.556196,202.608 L718.531284,203.293913 L718.242429,203.442435 L717.994293,203.636522 L717.50672,204.024348 L716.427865,204.516174 L715.349359,204.998957 L714.175843,205.440696 L713.539319,205.634783 L712.952561,205.88313 L712.26627,206.032 L711.630094,206.225739 L710.948328,206.374609 L710.311804,206.568696 L709.576094,206.663304 L708.890152,206.812522 L707.423257,207.060522 L696.558843,207.791304 L677.623552,207.791304 L677.623552,149.587478 L691.273152,149.587478 Z M768.786942,131.4208 L768.786942,194.027409 L799.078396,194.027409 L799.078396,207.787061 L750.344096,207.787061 L750.344096,131.4208 L768.786942,131.4208 Z M910.404709,149.578365 L920.77633,150.376974 L922.045202,150.571061 L923.367669,150.86393 L924.590603,151.207235 L925.813885,151.648974 L926.933458,152.04167 L928.061731,152.578365 L929.095343,153.11993 L930.119907,153.755757 L931.979713,155.077843 L932.85985,155.813148 L933.690568,156.643061 L934.430801,157.423583 L935.161638,158.307757 L936.430163,160.21593 L936.967502,161.095583 L937.459251,162.074713 L937.847638,163.053496 L938.190784,164.032626 L938.438572,165.011409 L938.633114,165.990539 L938.782066,166.969322 L938.82696,168.047583 L938.782066,168.827757 L938.687057,169.658017 L938.389154,171.372104 L937.80692,173.086539 L937.464123,173.965843 L937.066687,174.845843 L936.583638,175.680278 L936.335502,176.072974 L936.141656,176.514713 L935.604317,177.299757 L935.112568,178.080278 L934.476044,178.765843 L933.89381,179.451757 L933.550665,179.744974 L933.252762,180.08793 L932.616237,180.773496 L931.29377,181.752278 L930.905731,181.946713 L930.711537,182.045843 L930.616876,182.095235 L930.562933,182.194713 L929.876643,182.68167 L929.099867,183.074365 L928.703127,183.268104 L928.508933,183.363061 L928.414273,183.4128 L928.359982,183.51193 L928.220079,183.51193 L928.11637,183.561322 L927.922176,183.656278 L927.533788,183.850017 L926.74866,184.242713 L925.868524,184.53593 L924.988387,184.878539 L923.182872,185.465322 L922.203202,185.659409 L921.711453,185.758539 L921.57155,185.758539 L921.476541,185.80793 L921.282696,185.907409 L920.249083,186.101496 L919.269414,186.344974 L939.721017,207.787061 L922.397396,207.787061 L902.577793,185.55993 L902.577793,207.782191 L888.436444,207.782191 L888.436444,149.578365 L910.404709,149.578365 Z M986.451431,149.5784 L986.451431,160.05353 L959.784581,160.05353 L959.784581,173.469878 L985.277916,173.469878 L985.277916,183.945009 L959.784233,183.945009 L959.784233,197.311617 L986.451431,197.311617 L986.451431,207.787096 L945.783136,207.787096 L945.783136,149.5784 L986.451431,149.5784 Z M1110.89435,149.578365 L1110.89435,159.422191 L1082.35865,197.31193 L1112.79905,197.31193 L1112.79905,207.787061 L1065.57237,207.787061 L1065.57237,198.588452 L1094.2525,160.053843 L1067.23798,160.053843 L1067.23798,149.578365 L1110.89435,149.578365 Z M486.978281,149.578226 L486.978281,172.933009 L513.988277,172.933009 L513.988277,149.578226 L528.034964,149.578226 L528.034964,207.786922 L513.988277,207.786922 L513.988277,183.457878 L486.978281,183.457878 L486.978281,207.786922 L472.981361,207.786922 L472.981361,149.578226 L486.978281,149.578226 Z M1012.67578,149.57847 L1044.2361,192.169078 L1044.2361,149.57847 L1058.23755,149.57847 L1058.23755,207.786817 L1042.72362,207.786817 L1010.9249,165.489774 L1010.9249,207.786817 L996.923456,207.786817 L996.923456,149.57847 L1012.67578,149.57847 Z M576.62508,149.578261 L608.577622,207.782087 L593.018798,207.782087 L584.84456,192.800522 L558.078177,192.800522 L549.615085,207.782087 L534.196164,207.782087 L565.760318,149.578261 L576.62508,149.578261 Z M840.089941,159.074609 L837.508346,159.11113 L835.012364,159.404 L832.570324,159.891304 L830.173179,160.57687 L828.999663,160.920174 L827.925333,161.361913 L826.851351,161.804348 L825.872029,162.341043 L823.957932,163.468696 L823.032901,164.05513 L822.193483,164.741043 L820.52787,166.161913 L819.065152,167.678087 L817.796976,169.292696 L816.763016,171.056522 L815.837985,172.865913 L815.246703,174.774087 L814.849267,176.732 L814.754606,178.739304 L814.849267,180.697217 L815.246703,182.654783 L815.49484,183.584174 L815.837985,184.562957 L816.226025,185.492348 L816.763016,186.471478 L817.205694,187.305913 L817.796976,188.185565 L818.37921,188.966435 L819.065152,189.80087 L819.751095,190.535826 L820.52787,191.316348 L822.193483,192.787304 L824.007699,194.059304 L826.007408,195.236696 L828.06106,196.260696 L830.263663,197.194609 L840.103862,198.710435 L840.685747,198.665217 L841.33132,198.665217 L842.599496,198.610957 L843.18173,198.516348 L843.479981,198.462087 L843.822778,198.462087 L845.091302,198.317739 L847.532994,197.830783 L849.984082,197.194609 L851.017694,196.702783 L852.092025,196.260696 L852.575073,195.972 L852.723677,195.82313 L852.818685,195.82313 L853.10754,195.728522 L854.18187,195.241217 L856.140862,194.063826 L856.344104,193.869739 L856.438765,193.770261 L856.484007,193.72087 L856.57832,193.72087 L857.070417,193.427652 L858.050086,192.791478 L858.880804,192.006783 L859.66628,191.32087 L860.397117,190.540348 L860.740263,190.148 L861.137351,189.805043 L861.426205,189.362957 L861.769351,188.970609 L862.405875,188.190087 L862.943214,187.310435 L863.037875,187.066957 L863.186826,186.87287 L863.475681,186.480174 L863.918011,185.501391 L864.306399,184.522261 L864.649196,183.543478 L864.938051,182.614087 L865.335487,180.656522 L865.430148,179.677739 L865.430148,178.946609 L865.484091,178.752522 L865.430148,177.724 L865.335487,176.745217 L864.938051,174.787304 L864.649196,173.808522 L864.306399,172.87913 L863.918011,171.949739 L863.475681,171.069739 L862.401351,169.305913 L861.132826,167.691304 L859.661408,166.17513 L858.875932,165.439826 L858.045562,164.754261 L857.120183,164.068696 L856.240047,163.482261 L854.326298,162.354261 L853.251967,161.817565 L852.218355,161.37513 L851.144025,160.933391 L850.069694,160.590435 L840.089941,159.074609 Z M697.691641,182.429217 L691.615949,182.429217 L691.615949,197.311652 L697.43898,197.311652 L703.360848,197.063304 L709.039103,195.304348 L709.431667,195.006261 L709.625861,194.857739 L709.869821,194.762783 L710.605182,194.176696 L710.912134,193.824696 L711.255279,193.536 L711.34994,193.341913 L711.399707,193.242435 L711.494715,193.192696 L711.787746,192.899826 L712.130892,192.114783 L712.474037,191.334261 L712.474037,191.090783 L712.523804,190.896696 L712.618464,190.504348 L712.717649,189.624696 L712.618464,188.596174 L712.374852,187.716174 L711.986464,186.836522 L711.444949,186.101217 L710.713416,185.366261 L709.878522,184.779478 L708.849433,184.193043 L707.675918,183.705739 L702.728848,182.578087 L697.691641,182.429217 Z M571.194961,164.609913 L563.119908,182.280522 L579.414441,182.280522 L571.194961,164.609913 Z M910.3097,160.053496 L902.582317,160.053496 L902.582317,177.38567 L910.165273,177.38567 L910.368515,177.33593 L912.025079,177.33593 L912.905215,177.2368 L913.7857,177.187061 L915.40607,176.992974 L915.740167,176.893843 L916.136907,176.844452 L916.922383,176.744974 L917.549859,176.550887 L918.236149,176.406539 L919.459083,176.014191 L920.492696,175.527235 L920.935374,175.23367 L921.418074,174.990191 L921.76122,174.597843 L922.149607,174.254539 L922.83555,173.569322 L923.372541,172.7888 L923.620678,172.396452 L923.909533,172.053148 L923.909533,171.904626 L923.963823,171.805148 L924.058484,171.611409 L924.252678,171.218713 L924.252678,171.069843 L924.306621,170.970713 L924.401281,170.776626 L924.541533,170.384278 L924.690832,169.504626 L924.690832,169.256278 L924.735378,169.062539 L924.790017,168.670191 L924.695008,167.64167 L924.546057,166.712278 L924.212308,165.832626 L923.814872,164.997843 L920.78155,162.110539 L919.608035,161.474365 L918.384753,161.032626 L917.062286,160.590191 L915.739819,160.346713 L910.3097,160.053496 Z M698.815389,160.053565 L691.620821,160.053565 L691.620821,171.949565 L699.104592,171.949565 L703.753411,171.169043 L703.961178,171.016 L704.20479,170.91687 L704.696887,170.722435 L705.085275,170.429217 L705.283645,170.280348 L705.527605,170.185739 L705.672033,169.991652 L705.865878,169.847304 L706.25879,169.554435 L706.407394,169.360348 L706.601588,169.21113 L706.944733,168.922435 L707.138927,168.530087 L707.233588,168.336348 L707.283354,168.241391 L707.382539,168.192 L707.775103,167.406957 L707.870112,166.964522 L707.964773,166.572174 L707.964773,166.328696 L708.014539,166.130087 L708.064306,165.737739 L707.969297,164.858087 L707.725685,164.077217 L707.332773,163.29287 L706.795781,162.606957 L706.060072,161.970783 L705.279121,161.479304 L704.349218,161.03687 L703.365372,160.694261 L698.815389,160.053565 Z" transform="translate(-323 -130)"/>
</svg>
