<?xml version="1.0" encoding="utf-8"?>
<!-- Generator: Adobe Illustrator 24.0.3, SVG Export Plug-In . SVG Version: 6.00 Build 0)  -->
<svg version="1.1" id="Слой_1" xmlns="http://www.w3.org/2000/svg" xmlns:xlink="http://www.w3.org/1999/xlink" x="0px" y="0px"
	 viewBox="0 0 148 50" style="enable-background:new 0 0 148 50;" xml:space="preserve">
<style type="text/css">
	.st0{fill:#394791;}
	.st1{fill:#9B9B9B;}
</style>
<title>gorenje-ru</title>
<g>
	<path class="st0" d="M9.2,23.5c-0.1-1.4-1.1-2.2-2.8-2.2C4.9,21.3,4,21.9,4,23c0,1.3,1.6,1.4,4.5,2.2c2.6,0.7,4.3,1.8,4.3,4.2
		c0,3.5-3.1,4.8-6.1,4.8c-4,0-6.4-1.9-6.4-5.3h3.2c0.1,2,1.4,2.8,3.3,2.8c1.7,0,2.7-0.7,2.7-2c0-1.2-1-1.4-4.1-2.2
		c-2.4-0.7-4.7-1.3-4.7-4.3c0-2.7,2.2-4.4,5.7-4.4c3.1,0,5.6,1.4,5.7,4.7H9.2z"/>
	<path class="st0" d="M19.6,34.2c-3.3,0-5.5-2.2-5.5-5.5c0-3.5,2.2-5.8,5.5-5.8c2.9,0,4.8,1.6,5,4.1h-2.9c-0.2-1.2-1-1.8-2.1-1.8
		c-1.6,0-2.6,1.3-2.6,3.5c0,2.1,0.9,3.4,2.5,3.4c1.3,0,2.1-0.7,2.3-2.2h2.8C24.3,32.5,22.4,34.2,19.6,34.2z"/>
	<path class="st0" d="M29.3,24.6c0.9-1.1,1.9-1.7,3.4-1.7c2.6,0,3.8,1.5,3.8,4v7h-3v-6.3c0-1.3-0.3-2.3-1.9-2.3
		c-2,0-2.3,1.5-2.3,3.1v5.5h-2.9V19.1h2.9C29.3,19.1,29.3,24.6,29.3,24.6z"/>
	<path class="st0" d="M45.7,33.9c-0.1-0.4-0.2-0.6-0.2-1c-0.9,0.9-2.2,1.4-3.5,1.4c-2.4,0-3.8-1.2-3.8-3.2c0-2.8,2.6-3.1,4.7-3.4
		c1.9-0.2,2.6-0.4,2.6-1.3c0-1-0.6-1.4-1.9-1.4c-1.4,0-1.9,0.4-2.1,1.6h-2.8c0.2-2.4,1.9-3.6,5-3.6c2.2,0,4.7,0.5,4.7,3.5V31
		c0,1,0,2,0.4,2.9H45.7z M43.4,29.2c-1,0.2-2.2,0.3-2.2,1.6c0,0.9,0.6,1.4,1.6,1.4c1.5,0,2.6-0.9,2.6-2.4v-1.2
		C44.8,29.1,44.2,29.1,43.4,29.2z"/>
	<path class="st0" d="M60.7,33.9h-2.8v-1.5c-0.8,1.2-2,1.8-3.5,1.8c-2.3,0-3.7-1.3-3.7-3.8v-7.2h3v6.1c0,1.4,0.1,2.4,1.8,2.4
		c1.8,0,2.3-1.4,2.3-3v-5.5h2.9V33.9z"/>
	<path class="st0" d="M65.9,24.5c0.9-1.1,2-1.6,3.4-1.6c3,0,4.6,2.5,4.6,5.5c0,3.4-1.9,5.8-4.8,5.8c-1.4,0-2.6-0.5-3.4-1.6V34H63
		V19.1h2.9V24.5z M65.8,28.5c0,2.1,1,3.3,2.6,3.3c1.5,0,2.5-1.3,2.5-3.4c0-2-1-3.3-2.5-3.3C66.8,25.2,65.8,26.4,65.8,28.5z"/>
	<path class="st0" d="M92.3,33.9H81.8V19.1H85v12h7.2v2.8H92.3z"/>
	<path class="st0" d="M104.6,28.5c0,3.4-2.2,5.7-5.5,5.7s-5.5-2.3-5.5-5.7s2.2-5.7,5.6-5.7C102.4,22.9,104.6,25.1,104.6,28.5z
		 M96.4,28.5c0,2.2,1,3.5,2.6,3.5s2.6-1.3,2.6-3.5c0-2.1-1-3.4-2.6-3.4S96.4,26.4,96.4,28.5z"/>
	<path class="st0" d="M113.5,25.7c-0.5-0.1-0.8-0.1-1.1-0.1c-2,0-2.8,1.5-2.8,3.4v4.9h-3V23.2h2.8v2c0.7-1.4,1.9-2.2,3.5-2.2
		c0.2,0,0.4,0,0.6,0.1V25.7z"/>
	<path class="st0" d="M119.3,34.2c-3.3,0-5.5-2.2-5.5-5.6c0-3.3,2.3-5.7,5.4-5.7c3.2,0,5.3,2.4,5.3,6.1v0.3h-7.7
		c0,1.8,0.9,2.8,2.5,2.8c1.1,0,1.7-0.5,2.2-1.6h2.8C123.6,32.9,121.7,34.2,119.3,34.2z M119.2,25c-1.3,0-2.2,0.9-2.4,2.4h4.7
		C121.3,26.1,120.6,25,119.2,25z"/>
	<path class="st0" d="M133.3,33.9v-6.3c0-1.3-0.2-2.3-1.8-2.3c-1.8,0-2.3,1.3-2.3,2.8v5.8h-2.9V23.2h2.8v1.5c0.9-1.1,2-1.8,3.6-1.8
		c2.3,0,3.7,1.4,3.7,3.8v7.2H133.3z"/>
	<path class="st0" d="M147.3,25.3l-5.7,6.3h6v2.3h-9.9v-2.2l5.7-6.2h-5.2v-2.3h9.1L147.3,25.3L147.3,25.3z"/>
</g>
<g>
	<path class="st1" d="M1.8,4.1L4.5,11L7,4.1h1.5v8.1h-1V5.5L5,12.3H4L1.4,5.5v6.8h-1V4.1H1.8z"/>
	<path class="st1" d="M19.7,12.2h-1.2l-0.9-2.5h-3.4l-0.9,2.5h-1.1l3.2-8.1h1.2L19.7,12.2z M15.9,5.1l-1.4,3.7h2.8L15.9,5.1z"/>
	<path class="st1" d="M23.3,12.2V4.1h5.3V5h-4.3v7.2H23.3z"/>
	<path class="st1" d="M37.7,12.2h-1.2l-0.9-2.5h-3.4l-0.9,2.5h-1.1l3.2-8.1h1.2L37.7,12.2z M33.9,5.1l-1.4,3.7h2.8L33.9,5.1z"/>
	<path class="st1" d="M44.2,12.4c-1.9,0-3.4-0.9-3.4-2.9h1c0,1.5,1.1,2,2.4,2c1.1,0,2-0.7,2-1.7c0-1.2-1-1.4-2-1.4
		c-0.2,0-0.6,0-0.7,0V7.5c0.2,0,0.5,0,0.7,0c1,0,1.8-0.4,1.8-1.5c0-1-0.8-1.3-1.7-1.3c-1.2,0-1.9,0.5-2,1.6h-1
		c0.1-1.7,1.4-2.5,3.1-2.5c1.6,0,2.8,0.7,2.8,2.2c0,0.9-0.7,1.6-1.3,1.8l0,0C47,8,47.5,8.9,47.5,9.7C47.4,10.8,46.5,12.4,44.2,12.4z
		"/>
	<path class="st1" d="M51.6,4.1h1.1V11l0,0l4-6.9H58v8.1h-1.1V5.3l0,0l-4,6.9h-1.3C51.6,12.2,51.6,4.1,51.6,4.1z"/>
	<path class="st1" d="M69,12.2h-1V8.4h-4.3v3.8h-1.1V4.1h1.1v3.4H68V4.1h1V12.2z"/>
	<path class="st1" d="M85.3,5h-2.7v7.2h-1.1V5h-2.7V4.1h6.5C85.3,4.1,85.3,5,85.3,5z"/>
	<path class="st1" d="M94.7,5h-4.5v2.5h4.2v0.9h-4.2v2.8h4.6v0.9h-5.7v-8h5.6V5z"/>
	<path class="st1" d="M102,8l2.8,4.2h-1.3l-2.2-3.3L99,12.2h-1.2l2.9-4.2L98,4.1h1.3l2,3.1l2.1-3.1h1.2L102,8z"/>
	<path class="st1" d="M115.1,12.2H114V8.4h-4.3v3.8h-1.1V4.1h1.1v3.4h4.3V4.1h1.1V12.2z"/>
	<path class="st1" d="M119.7,4.1h1.1V11l0,0l4-6.9h1.4v8.1h-1.1V5.3l0,0l-4,6.9h-1.3L119.7,4.1L119.7,4.1z"/>
	<path class="st1" d="M133.9,7.4l3.5,4.8H136l-2.9-4.1l-1.3,1.3v2.8h-1.1V4.1h1.1v4l4.1-4h1.4L133.9,7.4z"/>
	<path class="st1" d="M141.2,4.1h1.1V11l0,0l4-6.9h1.4v8.1h-1.1V5.3l0,0l-4,6.9h-1.3L141.2,4.1L141.2,4.1z"/>
</g>
<rect x="118.9" y="41.2" class="st0" width="29.1" height="6"/>
<rect y="41.2" class="st0" width="29.1" height="6"/>
<g>
	<path class="st0" d="M32.3,43.3c0-0.6,0.5-1.1,1.3-1.1c0.6,0,1,0.2,1.3,0.4l-0.3,0.5c-0.3-0.2-0.6-0.4-0.9-0.4
		c-0.4,0-0.6,0.2-0.6,0.5c0,0.8,2,0.4,2,1.7c0,0.4-0.1,0.7-0.4,0.9c-0.3,0.2-0.6,0.3-1,0.3c-0.3,0-0.6-0.1-0.8-0.2
		c-0.3-0.1-0.5-0.3-0.5-0.4l0.4-0.5c0.1,0.1,0.3,0.2,0.5,0.3s0.4,0.1,0.6,0.1c0.4,0,0.7-0.2,0.7-0.5C34.3,44.3,32.3,44.7,32.3,43.3z
		"/>
	<path class="st0" d="M39.2,45.5c-0.3,0.4-0.9,0.6-1.4,0.6c-0.6,0-1.1-0.2-1.5-0.5c-0.4-0.4-0.6-0.8-0.6-1.4c0-0.6,0.2-1,0.5-1.4
		c0.4-0.4,0.8-0.6,1.4-0.6c0.7,0,1.2,0.2,1.5,0.5l-0.3,0.5c-0.3-0.3-0.6-0.4-1.1-0.4c-0.4,0-0.7,0.1-0.9,0.4c-0.3,0.3-0.4,0.6-0.4,1
		s0.1,0.7,0.4,1c0.3,0.2,0.6,0.4,1,0.4s0.8-0.2,1.1-0.5L39.2,45.5z"/>
	<path class="st0" d="M40.1,46.1v-5.9h0.7v2.5c0.3-0.3,0.8-0.5,1.2-0.5c1,0,1.6,0.6,1.6,1.7v2.2h-0.7V44c0-0.8-0.4-1.1-1.1-1.1
		c-0.4,0-0.8,0.2-1.1,0.5v2.7C40.7,46.1,40.1,46.1,40.1,46.1z"/>
	<path class="st0" d="M44.7,42.6c0.4-0.2,0.8-0.3,1.3-0.3c1,0,1.4,0.5,1.4,1.5v2.3h-0.6v-0.5c-0.3,0.4-0.7,0.5-1.2,0.5
		c-0.7,0-1.2-0.5-1.2-1.2s0.6-1.2,1.4-1.2c0.4,0,0.7,0.1,0.9,0.2c0-0.8-0.2-1.2-0.9-1.2c-0.3,0-0.7,0.1-1,0.3L44.7,42.6z M46.8,45.1
		v-0.5c-0.2-0.2-0.5-0.3-0.8-0.3c-0.4,0-0.8,0.2-0.8,0.6c0,0.4,0.3,0.6,0.7,0.6C46.2,45.5,46.5,45.4,46.8,45.1z"/>
	<path class="st0" d="M51.9,42.3v3.8h-0.7v-0.5c-0.3,0.3-0.8,0.6-1.3,0.6c-0.9,0-1.4-0.5-1.4-1.6v-2.2h0.7v2.1c0,0.8,0.3,1.1,1,1.1
		c0.4,0,0.8-0.2,1.1-0.6v-2.7C51.3,42.3,51.9,42.3,51.9,42.3z"/>
	<path class="st0" d="M53.1,40.2h0.7v2.5c0.3-0.3,0.7-0.4,1.2-0.4c0.6,0,1,0.2,1.3,0.5c0.3,0.4,0.5,0.8,0.5,1.4
		c0,0.6-0.2,1.1-0.6,1.5c-0.4,0.4-0.9,0.5-1.5,0.5s-1.1-0.1-1.5-0.4v-5.6H53.1z M53.8,43.3v1.9c0.3,0.2,0.6,0.3,0.9,0.3
		c0.8,0,1.3-0.5,1.3-1.3s-0.5-1.3-1.2-1.3C54.4,42.9,54,43.1,53.8,43.3z"/>
	<path class="st0" d="M57.8,44.1v-0.6h2v0.6H57.8z"/>
	<path class="st0" d="M61,40.2h0.7v4.6c0,0.5,0.1,0.7,0.4,0.7c0.2,0,0.3-0.1,0.5-0.2l0.2,0.5c-0.2,0.2-0.5,0.3-0.9,0.3
		c-0.6,0-0.9-0.4-0.9-1.1V40.2z"/>
	<path class="st0" d="M63.2,44.2c0-0.6,0.2-1,0.6-1.4s0.9-0.6,1.5-0.6s1.1,0.2,1.4,0.6c0.4,0.4,0.6,0.8,0.6,1.4s-0.2,1-0.6,1.4
		s-0.9,0.6-1.4,0.6s-1.1-0.2-1.5-0.6C63.4,45.2,63.2,44.8,63.2,44.2z M64.3,45.2c0.2,0.3,0.6,0.4,0.9,0.4c0.8,0,1.3-0.5,1.3-1.3
		c0-0.4-0.1-0.7-0.4-1c-0.2-0.3-0.6-0.4-0.9-0.4c-0.4,0-0.7,0.1-0.9,0.4c-0.2,0.2-0.4,0.6-0.4,1S64.1,44.9,64.3,45.2z"/>
	<path class="st0" d="M68.2,46.1v-3.8h0.7v0.4c0.2-0.3,0.5-0.5,0.9-0.5c0.3,0,0.5,0.1,0.6,0.1L70.2,43c-0.2-0.1-0.3-0.1-0.5-0.1
		c-0.3,0-0.6,0.2-0.8,0.5v2.7C68.9,46.1,68.2,46.1,68.2,46.1z"/>
	<path class="st0" d="M74.2,45.7c-0.4,0.3-0.8,0.5-1.4,0.5s-1.1-0.2-1.5-0.5c-0.4-0.4-0.6-0.8-0.6-1.4c0-0.6,0.2-1,0.5-1.4
		s0.8-0.6,1.4-0.6c0.5,0,0.9,0.2,1.2,0.5c0.3,0.3,0.5,0.7,0.5,1.2c0,0.2,0,0.3,0,0.5h-2.9c0.1,0.7,0.6,1.1,1.3,1.1
		c0.5,0,0.9-0.1,1.2-0.4L74.2,45.7z M71.5,43.9h2.3c0-0.6-0.4-1-1.1-1C72,42.9,71.6,43.3,71.5,43.9z"/>
	<path class="st0" d="M75.4,46.1v-3.8h0.7v0.5c0.3-0.3,0.8-0.5,1.2-0.5c1,0,1.6,0.6,1.6,1.7v2.2h-0.7V44c0-0.8-0.4-1.2-1.1-1.2
		c-0.4,0-0.8,0.2-1.1,0.5V46L75.4,46.1L75.4,46.1z"/>
	<path class="st0" d="M79.9,42.9v-0.6h3.2v0.5l-2.4,2.7H83v0.6h-3.3v-0.5l2.4-2.7H79.9z"/>
	<path class="st0" d="M84,44.1v-0.6h2v0.6H84z"/>
	<path class="st0" d="M87.2,46.1v-3.8h0.7v0.4c0.2-0.3,0.5-0.5,0.9-0.5c0.3,0,0.5,0.1,0.6,0.1L89.2,43c-0.2-0.1-0.3-0.1-0.5-0.1
		c-0.3,0-0.6,0.2-0.8,0.5v2.7C87.9,46.1,87.2,46.1,87.2,46.1z"/>
	<path class="st0" d="M93.4,42.3v3.8h-0.7v-0.5c-0.3,0.3-0.8,0.6-1.3,0.6c-0.9,0-1.4-0.5-1.4-1.6v-2.2h0.7v2.1c0,0.8,0.3,1.1,1,1.1
		c0.4,0,0.8-0.2,1.1-0.6v-2.7C92.8,42.3,93.4,42.3,93.4,42.3z"/>
	<path class="st0" d="M94.5,43.3c0-0.6,0.5-1.1,1.3-1.1c0.6,0,1,0.2,1.3,0.4l-0.3,0.5c-0.3-0.2-0.6-0.4-0.9-0.4
		c-0.4,0-0.6,0.2-0.6,0.5c0,0.8,2,0.4,2,1.7c0,0.4-0.1,0.7-0.4,0.9s-0.6,0.3-1,0.3c-0.3,0-0.6-0.1-0.8-0.2c-0.3-0.1-0.5-0.3-0.5-0.4
		L95,45c0.1,0.1,0.3,0.2,0.5,0.3s0.4,0.1,0.6,0.1c0.4,0,0.7-0.2,0.7-0.5C96.5,44.3,94.5,44.7,94.5,43.3z"/>
	<path class="st0" d="M98.1,43.3c0-0.6,0.5-1.1,1.3-1.1c0.6,0,1,0.2,1.3,0.4l-0.3,0.5c-0.3-0.2-0.6-0.4-0.9-0.4
		c-0.4,0-0.6,0.2-0.6,0.5c0,0.8,2,0.4,2,1.7c0,0.4-0.1,0.7-0.4,0.9s-0.6,0.3-1,0.3c-0.3,0-0.6-0.1-0.8-0.2c-0.3-0.1-0.5-0.3-0.5-0.4
		l0.4-0.5c0.1,0.1,0.3,0.2,0.5,0.3s0.4,0.1,0.6,0.1c0.4,0,0.7-0.2,0.7-0.5C100.1,44.3,98.1,44.7,98.1,43.3z"/>
	<path class="st0" d="M102.3,40.5c0.2,0,0.4,0.2,0.4,0.4c0,0.3-0.2,0.4-0.4,0.4c-0.2,0-0.4-0.2-0.4-0.4S102.1,40.5,102.3,40.5z
		 M102,46.1v-3.8h0.7v3.8H102z"/>
	<path class="st0" d="M104.1,42.6c0.4-0.2,0.8-0.3,1.3-0.3c1,0,1.4,0.5,1.4,1.5v2.3h-0.6v-0.5c-0.3,0.4-0.7,0.5-1.2,0.5
		c-0.7,0-1.2-0.5-1.2-1.2s0.6-1.2,1.4-1.2c0.4,0,0.7,0.1,0.9,0.2c0-0.8-0.2-1.2-0.9-1.2c-0.3,0-0.7,0.1-1,0.3L104.1,42.6z
		 M106.1,45.1v-0.5c-0.2-0.2-0.5-0.3-0.8-0.3c-0.4,0-0.8,0.2-0.8,0.6c0,0.4,0.3,0.6,0.7,0.6C105.5,45.5,105.8,45.4,106.1,45.1z"/>
	<path class="st0" d="M108.2,45.2c0.2,0,0.4,0.2,0.4,0.4c0,0.3-0.2,0.5-0.4,0.5c-0.3,0-0.5-0.2-0.5-0.5
		C107.7,45.4,107.9,45.2,108.2,45.2z"/>
	<path class="st0" d="M109.6,46.1v-3.8h0.7v0.4c0.2-0.3,0.5-0.5,0.9-0.5c0.3,0,0.5,0.1,0.6,0.1l-0.2,0.6c-0.2-0.1-0.3-0.1-0.5-0.1
		c-0.3,0-0.6,0.2-0.8,0.5V46L109.6,46.1L109.6,46.1z"/>
	<path class="st0" d="M115.8,42.3v3.8h-0.7v-0.5c-0.3,0.3-0.8,0.6-1.3,0.6c-0.9,0-1.4-0.5-1.4-1.6v-2.2h0.7v2.1c0,0.8,0.3,1.1,1,1.1
		c0.4,0,0.8-0.2,1.1-0.6v-2.7C115.2,42.3,115.8,42.3,115.8,42.3z"/>
</g>
</svg>
