<svg xmlns="http://www.w3.org/2000/svg" width="148" height="45" viewBox="0 0 148 45">
  <g fill="none" fill-rule="evenodd">
    <path fill="#394791" fill-rule="nonzero" d="M9.2,20.5 C9.1,19.1 8.1,18.3 6.4,18.3 C4.9,18.3 4,18.9 4,20 C4,21.3 5.6,21.4 8.5,22.2 C11.1,22.9 12.8,24 12.8,26.4 C12.8,29.9 9.7,31.2 6.7,31.2 C2.7,31.2 0.3,29.3 0.3,25.9 L3.5,25.9 C3.6,27.9 4.9,28.7 6.8,28.7 C8.5,28.7 9.5,28 9.5,26.7 C9.5,25.5 8.5,25.3 5.4,24.5 C3,23.8 0.7,23.2 0.7,20.2 C0.7,17.5 2.9,15.8 6.4,15.8 C9.5,15.8 12,17.2 12.1,20.5 L9.2,20.5 L9.2,20.5 Z M19.6,31.2 C16.3,31.2 14.1,29 14.1,25.7 C14.1,22.2 16.3,19.9 19.6,19.9 C22.5,19.9 24.4,21.5 24.6,24 L21.7,24 C21.5,22.8 20.7,22.2 19.6,22.2 C18,22.2 17,23.5 17,25.7 C17,27.8 17.9,29.1 19.5,29.1 C20.8,29.1 21.6,28.4 21.8,26.9 L24.6,26.9 C24.3,29.5 22.4,31.2 19.6,31.2 Z M29.3,21.6 C30.2,20.5 31.2,19.9 32.7,19.9 C35.3,19.9 36.5,21.4 36.5,23.9 L36.5,30.9 L33.5,30.9 L33.5,24.6 C33.5,23.3 33.2,22.3 31.6,22.3 C29.6,22.3 29.3,23.8 29.3,25.4 L29.3,30.9 L26.4,30.9 L26.4,16.1 L29.3,16.1 L29.3,21.6 Z M45.7,30.9 C45.6,30.5 45.5,30.3 45.5,29.9 C44.6,30.8 43.3,31.3 42,31.3 C39.6,31.3 38.2,30.1 38.2,28.1 C38.2,25.3 40.8,25 42.9,24.7 C44.8,24.5 45.5,24.3 45.5,23.4 C45.5,22.4 44.9,22 43.6,22 C42.2,22 41.7,22.4 41.5,23.6 L38.7,23.6 C38.9,21.2 40.6,20 43.7,20 C45.9,20 48.4,20.5 48.4,23.5 L48.4,28 C48.4,29 48.4,30 48.8,30.9 L45.7,30.9 L45.7,30.9 Z M43.4,26.2 C42.4,26.4 41.2,26.5 41.2,27.8 C41.2,28.7 41.8,29.2 42.8,29.2 C44.3,29.2 45.4,28.3 45.4,26.8 L45.4,25.6 C44.8,26.1 44.2,26.1 43.4,26.2 L43.4,26.2 Z M60.7,30.9 L57.9,30.9 L57.9,29.4 C57.1,30.6 55.9,31.2 54.4,31.2 C52.1,31.2 50.7,29.9 50.7,27.4 L50.7,20.2 L53.7,20.2 L53.7,26.3 C53.7,27.7 53.8,28.7 55.5,28.7 C57.3,28.7 57.8,27.3 57.8,25.7 L57.8,20.2 L60.7,20.2 L60.7,30.9 L60.7,30.9 Z M65.9,21.5 C66.8,20.4 67.9,19.9 69.3,19.9 C72.3,19.9 73.9,22.4 73.9,25.4 C73.9,28.8 72,31.2 69.1,31.2 C67.7,31.2 66.5,30.7 65.7,29.6 L65.7,31 L63,31 L63,16.1 L65.9,16.1 L65.9,21.5 L65.9,21.5 Z M65.8,25.5 C65.8,27.6 66.8,28.8 68.4,28.8 C69.9,28.8 70.9,27.5 70.9,25.4 C70.9,23.4 69.9,22.1 68.4,22.1 C66.8,22.2 65.8,23.4 65.8,25.5 Z M92.3,30.9 L81.8,30.9 L81.8,16.1 L85,16.1 L85,28.1 L92.2,28.1 L92.2,30.9 L92.3,30.9 L92.3,30.9 Z M113.5,22.7 C113,22.6 112.7,22.6 112.4,22.6 C110.4,22.6 109.6,24.1 109.6,26 L109.6,30.9 L106.6,30.9 L106.6,20.2 L109.4,20.2 L109.4,22.2 C110.1,20.8 111.3,20 112.9,20 C113.1,20 113.3,20 113.5,20.1 L113.5,22.7 L113.5,22.7 Z M119.3,31.2 C116,31.2 113.8,29 113.8,25.6 C113.8,22.3 116.1,19.9 119.2,19.9 C122.4,19.9 124.5,22.3 124.5,26 L124.5,26.3 L116.8,26.3 C116.8,28.1 117.7,29.1 119.3,29.1 C120.4,29.1 121,28.6 121.5,27.5 L124.3,27.5 C123.6,29.9 121.7,31.2 119.3,31.2 Z M119.2,22 C117.9,22 117,22.9 116.8,24.4 L121.5,24.4 C121.3,23.1 120.6,22 119.2,22 Z M133.3,30.9 L133.3,24.6 C133.3,23.3 133.1,22.3 131.5,22.3 C129.7,22.3 129.2,23.6 129.2,25.1 L129.2,30.9 L126.3,30.9 L126.3,20.2 L129.1,20.2 L129.1,21.7 C130,20.6 131.1,19.9 132.7,19.9 C135,19.9 136.4,21.3 136.4,23.7 L136.4,30.9 L133.3,30.9 L133.3,30.9 Z M147.3,22.3 L141.6,28.6 L147.6,28.6 L147.6,30.9 L137.7,30.9 L137.7,28.7 L143.4,22.5 L138.2,22.5 L138.2,20.2 L147.3,20.2 L147.3,22.3 L147.3,22.3 Z"/>
    <path fill="#FC0204" d="M98.92337,16.24 C99.13337,16.03 99.40367,16.03 99.61337,16.24 C99.94337,16.6 100.03337,17.5 100.03337,18.01 L100.03337,18.01 L100.15367,18.01 C100.27337,18.01 100.39337,18.13 100.39337,18.25 L100.39337,18.25 L100.39337,18.37 C100.66337,18.4 100.84337,18.52 100.84337,18.7 L100.84337,18.7 L100.84337,19.57 C103.27337,20.26 105.07337,22.48 105.10367,25.15 C105.10367,28.36 102.49337,30.97 99.28337,30.97 C96.07337,30.97 93.46337,28.36 93.46337,25.15 C93.46337,22.51 95.26337,20.26 97.69337,19.57 L97.69337,19.57 L97.69337,18.7 C97.69337,18.52 97.90367,18.4 98.14337,18.37 L98.14337,18.37 L98.14337,18.25 C98.14337,18.13 98.26337,18.01 98.38337,18.01 L98.38337,18.01 L98.50367,18.01 C98.50367,17.5 98.59337,16.6 98.92337,16.24 Z M101.14337,27.28 L100.63337,27.82 L99.91337,27.7 L100.27337,28.36 L99.94337,29.02 L100.66337,28.9 L101.17337,29.44 L101.26337,28.69 L101.92337,28.33 L101.26337,28 L101.14337,27.28 Z M97.15367,23.11 L96.31337,24.43 L94.72337,24.49 L95.74337,25.72 L95.32337,27.25 L96.79337,26.68 L98.11337,27.55 L97.96337,25.99 L99.22337,25 L97.69337,24.61 L97.15367,23.11 Z M101.92337,22.63 L101.41337,23.68 L100.27337,23.86 L101.11337,24.67 L100.93337,25.81 L101.95367,25.27 L102.97337,25.81 L102.73337,24.64 L103.57337,23.83 L102.43337,23.68 L101.92337,22.63 Z M99.07337,20.83 L98.86337,21.43 L98.23337,21.58 L98.74337,21.97 L98.71337,22.63 L99.25367,22.27 L99.85367,22.54 L99.67337,21.91 L100.09337,21.4 L99.43337,21.37 L99.07337,20.83 Z M98.11331,16.08988 C98.17331,16.08988 98.29361,16.12018 98.20361,16.18018 C96.64361,16.68988 96.82331,19.18018 93.70361,18.60988 C94.48331,18.33988 94.51331,18.33988 94.87331,18.09988 C94.33331,18.13018 93.70361,18.07018 93.25361,17.79988 C94.66331,17.62018 94.96331,17.43988 95.23331,17.23018 C96.46331,16.18018 96.70361,16.08988 98.11331,16.08988 Z M100.33343,16.08988 C101.74343,16.08988 101.98343,16.18018 103.21343,17.23018 C103.48343,17.43988 103.78343,17.62018 105.19343,17.79988 C104.74343,18.07018 104.11343,18.13018 103.57343,18.09988 C103.93343,18.33988 103.96343,18.33988 104.74343,18.60988 C101.62343,19.18018 101.80343,16.68988 100.24343,16.18018 C100.15343,16.12018 100.27343,16.08988 100.33343,16.08988 Z M99.43337,16.42 C99.31337,16.33 99.19337,16.33 99.10367,16.42 C98.83337,16.69 98.77337,17.47 98.77337,18.01 L98.77337,18.01 L99.79337,18.01 C99.76337,17.47 99.70367,16.69 99.43337,16.42 Z M92.17337,10.89994 C92.92337,7.89994 97.24337,13.29994 97.93337,14.61994 C98.05367,14.83024 98.26337,15.33994 98.26337,15.51994 C98.23337,15.75994 98.14337,15.81994 98.05367,15.84994 C97.48337,15.96994 90.85367,16.03024 92.17337,10.89994 Z M100.54355,14.58994 C101.23355,13.29994 105.52325,7.86994 106.30355,10.86994 C107.62325,15.99994 100.99355,15.93994 100.45355,15.81994 C100.36325,15.78994 100.24355,15.73024 100.24355,15.48994 C100.21325,15.30994 100.42325,14.79994 100.54355,14.58994 Z M99.4785954,15.30997 C99.7881112,15.30997 99.9738207,15.42997 99.9738207,15.54997 C100.035724,15.69997 99.7881112,15.78997 99.4785954,15.78997 C99.1690795,15.78997 98.98337,15.66997 98.98337,15.54997 C98.98337,15.39997 99.2316017,15.30997 99.4785954,15.30997 Z M104.77325,12.45994 C104.35355,10.71994 101.68355,13.80994 101.14355,14.61994 C101.08355,14.68024 100.99355,14.79994 100.90355,14.94994 L100.90355,14.94994 L100.93355,14.94994 C101.05355,14.98024 101.23355,14.94994 101.35355,14.94994 C102.64355,14.88994 105.25355,14.94994 104.77325,12.45994 Z M97.36337,14.61994 C96.85367,13.83994 94.15367,10.71994 93.73337,12.45994 C93.22337,14.94994 95.83337,14.88994 97.12337,14.94994 L97.12337,14.94994 L97.60367,14.94994 C97.51337,14.83024 97.39337,14.68024 97.36337,14.61994 Z M99.4785954,14.31997 C99.7881112,14.31997 99.9738207,14.43997 99.9738207,14.55997 C100.035724,14.67997 99.7881112,14.79997 99.4785954,14.79997 C99.1690795,14.79997 98.98337,14.67997 98.98337,14.55997 C98.98337,14.40997 99.2316017,14.31997 99.4785954,14.31997 Z M99.4785954,13.32997 C99.7881112,13.32997 99.9738207,13.44997 99.9738207,13.56997 C100.035724,13.68997 99.7881112,13.80997 99.4785954,13.80997 C99.1690795,13.80997 98.98337,13.68997 98.98337,13.56997 C98.98337,13.41997 99.2316017,13.32997 99.4785954,13.32997 Z M99.4785954,12.30997 C99.7881112,12.30997 99.9738207,12.39997 99.9738207,12.54997 C100.035724,12.69997 99.7881112,12.78997 99.4785954,12.78997 C99.1690795,12.78997 98.98337,12.66997 98.98337,12.54997 C98.98337,12.39997 99.2316017,12.30997 99.4785954,12.30997 Z M99.4785954,11.31997 C99.7881112,11.31997 99.9738207,11.43997 99.9738207,11.55997 C100.035724,11.67997 99.7881112,11.79997 99.4785954,11.79997 C99.1690795,11.79997 98.98337,11.67997 98.98337,11.55997 C98.98337,11.40997 99.2316017,11.31997 99.4785954,11.31997 Z M99.4785954,10.29997 C99.7881112,10.29997 99.9738207,10.38997 99.9738207,10.53997 C100.035724,10.68997 99.7881112,10.77997 99.4785954,10.77997 C99.1690795,10.77997 98.98337,10.65997 98.98337,10.53997 C98.98337,10.38997 99.2316017,10.29997 99.4785954,10.29997 Z"/>
    <path fill="#9B9B9B" fill-rule="nonzero" d="M1.8,1.1 L4.5,8 L7,1.1 L8.5,1.1 L8.5,9.2 L7.5,9.2 L7.5,2.5 L5,9.3 L4,9.3 L1.4,2.5 L1.4,9.3 L0.4,9.3 L0.4,1.1 L1.8,1.1 Z M19.7,9.2 L18.5,9.2 L17.6,6.7 L14.2,6.7 L13.3,9.2 L12.2,9.2 L15.4,1.1 L16.6,1.1 L19.7,9.2 L19.7,9.2 Z M15.9,2.1 L14.5,5.8 L17.3,5.8 L15.9,2.1 L15.9,2.1 Z M23.3,9.2 L23.3,1.1 L28.6,1.1 L28.6,2 L24.3,2 L24.3,9.2 L23.3,9.2 Z M37.7,9.2 L36.5,9.2 L35.6,6.7 L32.2,6.7 L31.3,9.2 L30.2,9.2 L33.4,1.1 L34.6,1.1 L37.7,9.2 L37.7,9.2 Z M33.9,2.1 L32.5,5.8 L35.3,5.8 L33.9,2.1 L33.9,2.1 Z M44.2,9.4 C42.3,9.4 40.8,8.5 40.8,6.5 L41.8,6.5 C41.8,8 42.9,8.5 44.2,8.5 C45.3,8.5 46.2,7.8 46.2,6.8 C46.2,5.6 45.2,5.4 44.2,5.4 L43.5,5.4 L43.5,4.5 L44.2,4.5 C45.2,4.5 46,4.1 46,3 C46,2 45.2,1.7 44.3,1.7 C43.1,1.7 42.4,2.2 42.3,3.3 L41.3,3.3 C41.4,1.6 42.7,0.8 44.4,0.8 C46,0.8 47.2,1.5 47.2,3 C47.2,3.9 46.5,4.6 45.9,4.8 C47,5 47.5,5.9 47.5,6.7 C47.4,7.8 46.5,9.4 44.2,9.4 Z M51.6,1.1 L52.7,1.1 L52.7,8 L56.7,1.1 L58,1.1 L58,9.2 L56.9,9.2 L56.9,2.3 L52.9,9.2 L51.6,9.2 L51.6,1.1 Z M69,9.2 L68,9.2 L68,5.4 L63.7,5.4 L63.7,9.2 L62.6,9.2 L62.6,1.1 L63.7,1.1 L63.7,4.5 L68,4.5 L68,1.1 L69,1.1 L69,9.2 Z M85.3,2 L82.6,2 L82.6,9.2 L81.5,9.2 L81.5,2 L78.8,2 L78.8,1.1 L85.3,1.1 L85.3,2 Z M94.7,2 L90.2,2 L90.2,4.5 L94.4,4.5 L94.4,5.4 L90.2,5.4 L90.2,8.2 L94.8,8.2 L94.8,9.1 L89.1,9.1 L89.1,1.1 L94.7,1.1 L94.7,2 L94.7,2 Z M102,5 L104.8,9.2 L103.5,9.2 L101.3,5.9 L99,9.2 L97.8,9.2 L100.7,5 L98,1.1 L99.3,1.1 L101.3,4.2 L103.4,1.1 L104.6,1.1 L102,5 Z M115.1,9.2 L114,9.2 L114,5.4 L109.7,5.4 L109.7,9.2 L108.6,9.2 L108.6,1.1 L109.7,1.1 L109.7,4.5 L114,4.5 L114,1.1 L115.1,1.1 L115.1,9.2 Z M119.7,1.1 L120.8,1.1 L120.8,8 L124.8,1.1 L126.2,1.1 L126.2,9.2 L125.1,9.2 L125.1,2.3 L121.1,9.2 L119.8,9.2 L119.7,1.1 L119.7,1.1 Z M133.9,4.4 L137.4,9.2 L136,9.2 L133.1,5.1 L131.8,6.4 L131.8,9.2 L130.7,9.2 L130.7,1.1 L131.8,1.1 L131.8,5.1 L135.9,1.1 L137.3,1.1 L133.9,4.4 Z M141.2,1.1 L142.3,1.1 L142.3,8 L146.3,1.1 L147.7,1.1 L147.7,9.2 L146.6,9.2 L146.6,2.3 L142.6,9.2 L141.3,9.2 L141.2,1.1 Z"/>
    <path fill="#394791" fill-rule="nonzero" d="M118.9,38.2 L148,38.2 L148,44.2 L118.9,44.2 L118.9,38.2 Z M0,38.2 L29.1,38.2 L29.1,44.2 L0,44.2 L0,38.2 Z M32.3,40.3 C32.3,39.7 32.8,39.2 33.6,39.2 C34.2,39.2 34.6,39.4 34.9,39.6 L34.6,40.1 C34.3,39.9 34,39.7 33.7,39.7 C33.3,39.7 33.1,39.9 33.1,40.2 C33.1,41 35.1,40.6 35.1,41.9 C35.1,42.3 35,42.6 34.7,42.8 C34.4,43 34.1,43.1 33.7,43.1 C33.4,43.1 33.1,43 32.9,42.9 C32.6,42.8 32.4,42.6 32.4,42.5 L32.8,42 C32.9,42.1 33.1,42.2 33.3,42.3 C33.5,42.4 33.7,42.4 33.9,42.4 C34.3,42.4 34.6,42.2 34.6,41.9 C34.3,41.3 32.3,41.7 32.3,40.3 L32.3,40.3 Z M39.2,42.5 C38.9,42.9 38.3,43.1 37.8,43.1 C37.2,43.1 36.7,42.9 36.3,42.6 C35.9,42.2 35.7,41.8 35.7,41.2 C35.7,40.6 35.9,40.2 36.2,39.8 C36.6,39.4 37,39.2 37.6,39.2 C38.3,39.2 38.8,39.4 39.1,39.7 L38.8,40.2 C38.5,39.9 38.2,39.8 37.7,39.8 C37.3,39.8 37,39.9 36.8,40.2 C36.5,40.5 36.4,40.8 36.4,41.2 C36.4,41.6 36.5,41.9 36.8,42.2 C37.1,42.4 37.4,42.6 37.8,42.6 C38.2,42.6 38.6,42.4 38.9,42.1 L39.2,42.5 Z M40.1,43.1 L40.1,37.2 L40.8,37.2 L40.8,39.7 C41.1,39.4 41.6,39.2 42,39.2 C43,39.2 43.6,39.8 43.6,40.9 L43.6,43.1 L42.9,43.1 L42.9,41 C42.9,40.2 42.5,39.9 41.8,39.9 C41.4,39.9 41,40.1 40.7,40.4 L40.7,43.1 L40.1,43.1 L40.1,43.1 Z M44.7,39.6 C45.1,39.4 45.5,39.3 46,39.3 C47,39.3 47.4,39.8 47.4,40.8 L47.4,43.1 L46.8,43.1 L46.8,42.6 C46.5,43 46.1,43.1 45.6,43.1 C44.9,43.1 44.4,42.6 44.4,41.9 C44.4,41.2 45,40.7 45.8,40.7 C46.2,40.7 46.5,40.8 46.7,40.9 C46.7,40.1 46.5,39.7 45.8,39.7 C45.5,39.7 45.1,39.8 44.8,40 L44.7,39.6 L44.7,39.6 Z M46.8,42.1 L46.8,41.6 C46.6,41.4 46.3,41.3 46,41.3 C45.6,41.3 45.2,41.5 45.2,41.9 C45.2,42.3 45.5,42.5 45.9,42.5 C46.2,42.5 46.5,42.4 46.8,42.1 L46.8,42.1 Z M51.9,39.3 L51.9,43.1 L51.2,43.1 L51.2,42.6 C50.9,42.9 50.4,43.2 49.9,43.2 C49,43.2 48.5,42.7 48.5,41.6 L48.5,39.4 L49.2,39.4 L49.2,41.5 C49.2,42.3 49.5,42.6 50.2,42.6 C50.6,42.6 51,42.4 51.3,42 L51.3,39.3 L51.9,39.3 L51.9,39.3 Z M53.1,37.2 L53.8,37.2 L53.8,39.7 C54.1,39.4 54.5,39.3 55,39.3 C55.6,39.3 56,39.5 56.3,39.8 C56.6,40.2 56.8,40.6 56.8,41.2 C56.8,41.8 56.6,42.3 56.2,42.7 C55.8,43.1 55.3,43.2 54.7,43.2 C54.1,43.2 53.6,43.1 53.2,42.8 L53.2,37.2 L53.1,37.2 Z M53.8,40.3 L53.8,42.2 C54.1,42.4 54.4,42.5 54.7,42.5 C55.5,42.5 56,42 56,41.2 C56,40.4 55.5,39.9 54.8,39.9 C54.4,39.9 54,40.1 53.8,40.3 L53.8,40.3 Z M57.8,41.1 L57.8,40.5 L59.8,40.5 L59.8,41.1 L57.8,41.1 Z M61,37.2 L61.7,37.2 L61.7,41.8 C61.7,42.3 61.8,42.5 62.1,42.5 C62.3,42.5 62.4,42.4 62.6,42.3 L62.8,42.8 C62.6,43 62.3,43.1 61.9,43.1 C61.3,43.1 61,42.7 61,42 L61,37.2 L61,37.2 Z M63.2,41.2 C63.2,40.6 63.4,40.2 63.8,39.8 C64.2,39.4 64.7,39.2 65.3,39.2 C65.9,39.2 66.4,39.4 66.7,39.8 C67.1,40.2 67.3,40.6 67.3,41.2 C67.3,41.8 67.1,42.2 66.7,42.6 C66.3,43 65.8,43.2 65.3,43.2 C64.8,43.2 64.2,43 63.8,42.6 C63.4,42.2 63.2,41.8 63.2,41.2 Z M64.3,42.2 C64.5,42.5 64.9,42.6 65.2,42.6 C66,42.6 66.5,42.1 66.5,41.3 C66.5,40.9 66.4,40.6 66.1,40.3 C65.9,40 65.5,39.9 65.2,39.9 C64.8,39.9 64.5,40 64.3,40.3 C64.1,40.5 63.9,40.9 63.9,41.3 C63.9,41.7 64.1,41.9 64.3,42.2 L64.3,42.2 Z M68.2,43.1 L68.2,39.3 L68.9,39.3 L68.9,39.7 C69.1,39.4 69.4,39.2 69.8,39.2 C70.1,39.2 70.3,39.3 70.4,39.3 L70.2,40 C70,39.9 69.9,39.9 69.7,39.9 C69.4,39.9 69.1,40.1 68.9,40.4 L68.9,43.1 L68.2,43.1 L68.2,43.1 Z M74.2,42.7 C73.8,43 73.4,43.2 72.8,43.2 C72.2,43.2 71.7,43 71.3,42.7 C70.9,42.3 70.7,41.9 70.7,41.3 C70.7,40.7 70.9,40.3 71.2,39.9 C71.5,39.5 72,39.3 72.6,39.3 C73.1,39.3 73.5,39.5 73.8,39.8 C74.1,40.1 74.3,40.5 74.3,41 L74.3,41.5 L71.4,41.5 C71.5,42.2 72,42.6 72.7,42.6 C73.2,42.6 73.6,42.5 73.9,42.2 L74.2,42.7 L74.2,42.7 Z M71.5,40.9 L73.8,40.9 C73.8,40.3 73.4,39.9 72.7,39.9 C72,39.9 71.6,40.3 71.5,40.9 Z M75.4,43.1 L75.4,39.3 L76.1,39.3 L76.1,39.8 C76.4,39.5 76.9,39.3 77.3,39.3 C78.3,39.3 78.9,39.9 78.9,41 L78.9,43.2 L78.2,43.2 L78.2,41 C78.2,40.2 77.8,39.8 77.1,39.8 C76.7,39.8 76.3,40 76,40.3 L76,43 L75.4,43.1 L75.4,43.1 Z M79.9,39.9 L79.9,39.3 L83.1,39.3 L83.1,39.8 L80.7,42.5 L83,42.5 L83,43.1 L79.7,43.1 L79.7,42.6 L82.1,39.9 L79.9,39.9 L79.9,39.9 Z M84,41.1 L84,40.5 L86,40.5 L86,41.1 L84,41.1 Z M87.2,43.1 L87.2,39.3 L87.9,39.3 L87.9,39.7 C88.1,39.4 88.4,39.2 88.8,39.2 C89.1,39.2 89.3,39.3 89.4,39.3 L89.2,40 C89,39.9 88.9,39.9 88.7,39.9 C88.4,39.9 88.1,40.1 87.9,40.4 L87.9,43.1 L87.2,43.1 L87.2,43.1 Z M93.4,39.3 L93.4,43.1 L92.7,43.1 L92.7,42.6 C92.4,42.9 91.9,43.2 91.4,43.2 C90.5,43.2 90,42.7 90,41.6 L90,39.4 L90.7,39.4 L90.7,41.5 C90.7,42.3 91,42.6 91.7,42.6 C92.1,42.6 92.5,42.4 92.8,42 L92.8,39.3 L93.4,39.3 L93.4,39.3 Z M94.5,40.3 C94.5,39.7 95,39.2 95.8,39.2 C96.4,39.2 96.8,39.4 97.1,39.6 L96.8,40.1 C96.5,39.9 96.2,39.7 95.9,39.7 C95.5,39.7 95.3,39.9 95.3,40.2 C95.3,41 97.3,40.6 97.3,41.9 C97.3,42.3 97.2,42.6 96.9,42.8 C96.6,43 96.3,43.1 95.9,43.1 C95.6,43.1 95.3,43 95.1,42.9 C94.8,42.8 94.6,42.6 94.6,42.5 L95,42 C95.1,42.1 95.3,42.2 95.5,42.3 C95.7,42.4 95.9,42.4 96.1,42.4 C96.5,42.4 96.8,42.2 96.8,41.9 C96.5,41.3 94.5,41.7 94.5,40.3 L94.5,40.3 Z M98.1,40.3 C98.1,39.7 98.6,39.2 99.4,39.2 C100,39.2 100.4,39.4 100.7,39.6 L100.4,40.1 C100.1,39.9 99.8,39.7 99.5,39.7 C99.1,39.7 98.9,39.9 98.9,40.2 C98.9,41 100.9,40.6 100.9,41.9 C100.9,42.3 100.8,42.6 100.5,42.8 C100.2,43 99.9,43.1 99.5,43.1 C99.2,43.1 98.9,43 98.7,42.9 C98.4,42.8 98.2,42.6 98.2,42.5 L98.6,42 C98.7,42.1 98.9,42.2 99.1,42.3 C99.3,42.4 99.5,42.4 99.7,42.4 C100.1,42.4 100.4,42.2 100.4,41.9 C100.1,41.3 98.1,41.7 98.1,40.3 L98.1,40.3 Z M102.3,37.5 C102.5,37.5 102.7,37.7 102.7,37.9 C102.7,38.2 102.5,38.3 102.3,38.3 C102.1,38.3 101.9,38.1 101.9,37.9 C101.9,37.7 102.1,37.5 102.3,37.5 Z M102,43.1 L102,39.3 L102.7,39.3 L102.7,43.1 L102,43.1 Z M104.1,39.6 C104.5,39.4 104.9,39.3 105.4,39.3 C106.4,39.3 106.8,39.8 106.8,40.8 L106.8,43.1 L106.2,43.1 L106.2,42.6 C105.9,43 105.5,43.1 105,43.1 C104.3,43.1 103.8,42.6 103.8,41.9 C103.8,41.2 104.4,40.7 105.2,40.7 C105.6,40.7 105.9,40.8 106.1,40.9 C106.1,40.1 105.9,39.7 105.2,39.7 C104.9,39.7 104.5,39.8 104.2,40 L104.1,39.6 L104.1,39.6 Z M106.1,42.1 L106.1,41.6 C105.9,41.4 105.6,41.3 105.3,41.3 C104.9,41.3 104.5,41.5 104.5,41.9 C104.5,42.3 104.8,42.5 105.2,42.5 C105.5,42.5 105.8,42.4 106.1,42.1 L106.1,42.1 Z M108.2,42.2 C108.4,42.2 108.6,42.4 108.6,42.6 C108.6,42.9 108.4,43.1 108.2,43.1 C107.9,43.1 107.7,42.9 107.7,42.6 C107.7,42.4 107.9,42.2 108.2,42.2 Z M109.6,43.1 L109.6,39.3 L110.3,39.3 L110.3,39.7 C110.5,39.4 110.8,39.2 111.2,39.2 C111.5,39.2 111.7,39.3 111.8,39.3 L111.6,39.9 C111.4,39.8 111.3,39.8 111.1,39.8 C110.8,39.8 110.5,40 110.3,40.3 L110.3,43 L109.6,43.1 L109.6,43.1 Z M115.8,39.3 L115.8,43.1 L115.1,43.1 L115.1,42.6 C114.8,42.9 114.3,43.2 113.8,43.2 C112.9,43.2 112.4,42.7 112.4,41.6 L112.4,39.4 L113.1,39.4 L113.1,41.5 C113.1,42.3 113.4,42.6 114.1,42.6 C114.5,42.6 114.9,42.4 115.2,42 L115.2,39.3 L115.8,39.3 L115.8,39.3 Z"/>
  </g>
</svg>
