<svg xmlns="http://www.w3.org/2000/svg" width="790" height="80" viewBox="0 0 790 80"><path fill="#EDEDED" fill-rule="evenodd" d="M32.833 0l10.964 1.665 1.268.392 1.277.487 1.223.492 1.224.587 2.247 1.222 1.03.685 1.074.786.98.735.93.78 1.764 1.715 1.467 1.809.682.933.636.98.492.974.438 1.028.392 1.029.343 1.078.244 1.078.199 1.074.094 1.078.05 1.128h-18.94l-.144-.88-.194-.834-.348-.786-.338-.73-.537-.735-.541-.686-.682-.636-.736-.541-.88-.538-.83-.437-.93-.393-.885-.248-.98-.243-.974-.144-1.08-.1H30.63l-1.025.1-1.029.144-.88.293-.88.293-.781.393-.786.442-.636.586-.736.542-.537.631-.492.64-.338.731-.344.69-.148.781-.1.785.05.88v.88l.149.884.1.388.194.442.437.83.542.735.736.736.83.635 1.03.686.631.393.83.388.935.397 1.029.388 2.298.785 1.318.392 1.422.388 10.223 2.887 2.546.885 1.227.491 1.174.537 2.153 1.029 1.025.586.979.636 1.273.835 1.223.88 1.129.88 1.074.928.93.934.88.975.735.983.736 1.074.537 1.028.488 1.124.442 1.177.388 1.222.244 1.228.199 1.321.149 1.322.045 1.417-.045 1.177-.15 1.272-.198 1.178-.244 1.272-.388 1.173-.442 1.177-.488 1.173-.537 1.178-.686 1.024-.392.487-.2.249-.144.297-.785.974-.438.497-.392.528-.93.888-.488.433-.437.492-1.03.884-.293.194-.15.095-.098.149-.488.496-.194.04-.149.1-.293.203-.587.388-1.174.785-1.223.685-1.223.677-1.323.591-1.322.591-1.368.483-1.372.496-1.566.388-1.517.397-1.566.343-1.517.288-1.615.194-1.562.15-1.616.099-1.567.053-1.615-.053-1.567-.1-3.033-.289-2.988-.59-1.467-.343-1.417-.388-2.889-.988-1.372-.582-1.268-.591-1.323-.686-1.223-.632-2.298-1.475-1.173-.879-1.03-.83-.979-.934-.88-.88-.884-.979-.781-.929-.736-1.024-.587-.98-.632-1.127-.492-1.074L.98 62.17l-.343-1.078-.343-1.173-.149-1.173L0 57.518v-1.173h19.179l.054 1.024.045.492.149.537.293.979.194.441.294.488.537.835.735.785.831.735 1.03.73.93.542 1.073.537 1.079.442 1.224.392 1.173.244 1.323.194 1.322.149 1.467.045 1.273-.045 1.268-.15.591-.143.637-.1 1.173-.293 1.074-.442 1.08-.442.487-.293.1-.095.049-.05h.095l.297-.099.975-.636.835-.785.389-.393.392-.338.294-.442.343-.392.587-.78.392-.88.339-.885.149-.979.05-.491v-.244l.05-.194-.1-1.421-.294-1.272-.437-1.223-.588-1.127-.785-1.129-.975-.979-1.128-.928-1.273-.781-.98-.591-1.073-.487-1.224-.492-1.372-.487-1.566-.492-1.71-.487-1.86-.492-1.96-.487-9.198-2.792-7.976-4.304-.93-.785-.83-.785-.836-.835-.685-.78-.732-.884-.586-.88-.588-.93-.492-.929-.979-1.958-.636-1.957-.438-1.958-.1-1.958.15-2.35.437-2.202.736-2.156.438-1.024.636-.984 1.224-1.908.686-.93.785-.834.781-.88.88-.785.93-.78 1.029-.686.98-.785 1.073-.68 2.303-1.228 2.396-1.078 2.596-.78L32.833 0zm74.236 18.6l2.84.05 1.367.049 1.418.149 2.74.342 2.74.537 2.644.636 2.596.83 2.54.93 2.547 1.128 2.396 1.227 2.253 1.416 2.053 1.421 1.91 1.615 1.665 1.616 1.567 1.808 1.367 1.913 1.174 2.008h-15.902l-.93-.835-.98-.78-1.028-.736-1.025-.636-1.173-.685-1.178-.587-1.224-.59-1.273-.488-2.74-.835-2.74-.586-1.417-.243-1.367-.1-2.745-.1-9.686 1.52-2.207.831-2.054 1.029-1.91 1.177-1.81 1.367-1.66 1.42-1.373 1.521-1.272 1.615-.975 1.76-.88 1.858-.592 1.963-.343 1.958-.1 2.057v.88l.1.928.393 1.86.244.883.347.925.925 1.864.438.834.591.88.587.78.687.835.681.735.785.78 1.666 1.471.83.636.93.636 1.91 1.178 2.003 1.024 1.03.442 1.124.492 2.352.636 2.396.487 2.447.298 2.54.094 1.278-.045 1.323-.094 2.54-.303 1.224-.288 1.273-.303 2.447-.676 1.123-.492 1.178-.492 1.075-.537 1.173-.587 1.08-.685 1.123-.686.487-.392.244-.194.298-.149 1.074-.785h16.295l-.587.88-.587.934-.686.88-.194.197-.1.095-.044.15-.298.487-.393.392-.194.199-.095.099-.05.14-.735.884-.83.785-.443.392-.389.442-.491.343-.438.388-.93.785-1.03.686-.292.149-.244.193-.492.389-.587.293-.293.149-.244.194-1.124.685-2.352 1.277-1.273.537-.338.1-.298.148-.587.293-1.273.492-1.218.483-1.323.388-1.273.397-2.546.685-1.372.24-.681.099h-.194l-.15.05-.297.099-2.64.397-2.74.194-2.736.094-2.013-.05-1.955-.143-1.958-.195-1.91-.243-1.954-.348-1.86-.392-1.86-.487-1.81-.537-1.764-.686-1.661-.69-1.616-.731-1.567-.785-1.566-.88-1.467-.879-1.467-.934-1.372-.979-1.318-1.128-1.228-1.118-1.168-1.178-1.03-1.177-1.029-1.268-.93-1.277-.88-1.322-.735-1.272-.736-1.466-.632-1.42-.93-2.938-.343-1.52-.244-1.466-.149-3.036.15-3.036.243-1.466.343-1.466.93-2.892.632-1.421.736-1.372 1.615-2.688.93-1.277 1.074-1.173 1.03-1.222 1.223-1.128 2.595-2.107 1.323-1.074 1.417-.93 2.984-1.713 1.516-.785 1.616-.686L92.043 21l1.76-.636 1.815-.437 3.765-.736 3.769-.441 3.917-.15zm198.084.978v36.374l.1 4.065.144 1.024.298.98.438.879.537.884.343.492.442.536.926 1.024.492.398.587.441 1.223.781 5.922 1.272 5.43-1.033.587-.338.586-.293.542-.389.244-.202.293-.14.194-.248.244-.195.492-.392.194-.243.244-.194.442-.397.293-.487v-.15h.05l.1-.094.193-.199.294-.536.293-.488.388-1.078.15-.591.049-.293.1-.244.243-4.552V19.578h13.997v36.374l-.1 2.346-.099 1.128-.05 1.078-.193.98-.145.978-.198.93-.194.884-.393 1.028-.388 1.029-.492.93-.542.978-.632.875-.636.89-.736.784-.393.388-.194.194-.099.095-.045.054v.1l-.542.387-.487.438-.98.838-1.079.732-1.074.73-1.173.645-1.174.632-1.273.591-1.228.582-1.367.442-1.368.393-1.372.338-1.368.297-2.839.388-1.422.1-1.367.05-1.372-.05-1.269-.1-2.645-.388-1.372-.297-1.268-.338-1.373-.393-1.272-.442-2.497-1.074-1.173-.59-1.079-.583-2.103-1.376-.98-.73-.88-.74-.975-.88-.835-.884-.78-.925-.637-.88-.637-.983-.492-.98-.487-1.023-.343-.979-.293-.884-.195-.88-.193-.979-.1-1.028-.149-1.124-.05-1.177-.045-2.545V19.578h14.042zm213.891-.97l2 .1 3.913.442 1.86.293 1.914.393 1.86.442 1.904.587 1.72.586 1.71.68 1.612.687 1.611.834 1.517.835 1.516.93 1.417.928 1.418 1.074 1.277 1.028 1.22 1.128 1.182 1.128 1.119 1.223.98 1.222.934 1.272.88 1.322.83 1.421.637 1.371.636 1.471.538 1.466.442 1.471.343 1.466.248 1.516.15 1.52.044 1.566-.045 1.47-.149 1.566-.248 1.47-.343 1.566-.442 1.47-.538 1.467-.342.685-.29.735-.73 1.471-.84 1.272-.871 1.322-.492.587-.249.293-.194.343-1.024 1.272-.592.536-.537.592-1.173 1.173-1.223 1.073-1.269 1.128-1.417.979-.397.194-.194.095-.095.054-.054.095-.678.491-1.516.88-1.517.88h-.148l-.095.045-.194.095-.397.202-.786.388h-.14l-.095.055-.203.095-.388.194-.785.387-1.657.645-.88.289h-.15l-.094.055-.194.094-.397.194-1.905.483-1.86.492-1.913.387-1.86.343-1.959.248-1.905.194-1.959.095-1.959.054-2.008-.054-1.959-.095-1.959-.194-1.86-.248-1.959-.343-1.86-.387-3.665-.98-1.764-.635-1.666-.646-1.656-.73-1.571-.732-1.57-.879-1.463-.88-1.463-.933-1.331-.98-1.368-1.127-1.223-1.074-1.219-1.173-1.034-1.128-1.074-1.272-.925-1.222-.88-1.322-.74-1.272-.786-1.47-.636-1.417-.537-1.467-.443-1.47-.343-1.566-.239-1.47-.149-1.566-.045-1.47.14-3.086.248-1.516.343-1.466.925-2.937.637-1.47.74-1.372.731-1.42.88-1.323 2-2.494 1.034-1.223 1.223-1.128 1.219-1.128 1.376-1.028 1.327-1.065 1.463-.929 1.47-.93 1.563-.834 1.57-.834 1.666-.686 1.656-.681 1.815-.586 3.665-1.03 3.773-.685 3.86-.442 4.062-.1h1.96zm-150.77.98l10.322.243 9.835 2.057 1.129.438 1.079.541 1.029.537 1.029.686.93.685.88.78.835.836.83.929.637.88.591.879.483.88.443.979.288.93.249.978.148.979.046 1.029-.05.893-.095.88-.194.834-.203.88-.289.785-.194.392-.095.194-.054.095v.149l-.388.735-.443.78-.194.15-.149.193-.289.393-.636.686-.393.293-.198.149-.144.193-.393.294-.194.149-.145.194-.835.487-.83.492-.88.441-.93.389 1.417.343 1.417.486 1.323.542 1.219.686 1.128.685 1.074.781.98.834.934.98.731.933.731.979.538 1.028.537 1.128.343 1.079.298 1.173.14 1.222.095 1.272-.046.98-.095.487-.054.099v.437l-.194.98-.248.978-.194.442-.15.488-.387.978-.492.88-.538.98-.676.838-.686.83-.786.785-.785.83-.483.343-.443.397-.491.334-.443.397-1.025.686-.289.148-.248.195-.487.387-1.08.492-1.078.483-1.173.442-.637.194-.586.248-.687.149-.636.194-.682.149-.636.194-.736.094-.686.15-1.467.248-10.864.73h-18.935V19.587h13.65zM445.786 1.42v62.606h30.291v13.76h-48.734V1.421h18.443zm141.618 18.157l10.371.799 1.27.194 1.322.293 1.223.343 1.223.442 1.12.393 1.128.536 1.033.542 1.025.636 1.86 1.322.88.735.83.83.74.78.732.885 1.268 1.908.538.88.491.979.389.978.343.98.248.978.194.98.15.978.044 1.079-.045.78-.095.83-.298 1.714-.582 1.715-.343.879-.397.88-.483.834-.248.393-.194.442-.538.785-.491.78-.637.686-.582.686-.343.293-.298.343-.637.685-1.322.98-.388.194-.194.099-.095.05-.054.099-.686.487-.777.392-.397.194-.194.095-.095.05-.054.099h-.14l-.104.05-.194.094-.388.194-.785.393-.88.293-.88.343-1.806.586-.98.194-.492.1h-.14l-.094.049-.194.1-1.034.193-.98.244 20.452 21.442h-17.324l-19.82-22.227v22.222h-14.14V19.578h21.968zm76.046 0v10.476h-26.666V43.47h25.493v10.475h-25.494v13.367h26.667v10.475h-40.668V19.578h40.668zm124.443 0v9.844l-28.535 37.89h30.44v10.475h-47.227v-9.199l28.68-38.534h-27.014V19.578h43.656zm-623.916 0v23.355h27.01V19.578h14.047v58.209h-14.047v-24.33h-27.01v24.33H149.98V19.578h13.997zm525.698 0l31.56 42.591V19.58h14.002v58.208h-15.514l-31.8-42.297v42.297h-14v-58.21h15.752zm-436.05 0l31.952 58.204h-15.56L261.844 62.8h-26.767l-8.463 14.981h-15.419l31.564-58.204h10.865zm263.464 9.497l-2.582.036-2.496.293-2.442.487-2.397.686-1.173.343-1.075.442-1.074.442-.979.537-1.914 1.128-.925.586-.84.686-1.665 1.42-1.463 1.517-1.268 1.615-1.034 1.764-.925 1.809-.591 1.908-.398 1.958-.094 2.007.094 1.958.398 1.958.248.93.343.978.388.93.537.978.443.835.591.88.582.78.686.835.686.735.777.78 1.665 1.471 1.815 1.272 2 1.178 2.053 1.024 2.203.934 9.84 1.515.582-.045h.645l1.268-.054.583-.095.298-.054h.343l1.268-.144 2.442-.487 2.451-.636 1.034-.492 1.074-.442.483-.289.149-.149h.095l.289-.094 1.074-.488 1.959-1.177.203-.194.095-.1.045-.05h.094l.492-.292.98-.637.83-.784.786-.686.731-.78.343-.393.397-.343.29-.442.342-.392.637-.78.537-.88.095-.244.149-.194.289-.393.442-.979.388-.979.343-.979.29-.929.396-1.957.095-.98v-.73l.054-.194-.054-1.029-.095-.979-.397-1.958-.289-.978-.343-.93-.388-.93-.442-.88-1.075-1.763-1.268-1.615-1.472-1.516-.785-.735-.83-.686-.926-.685-.88-.587-1.914-1.128-1.074-.536-1.034-.443-1.074-.442-1.074-.343-9.98-1.515zM374.692 52.429h-6.076v14.883h5.823l5.922-.249 5.678-1.759.393-.298.194-.148.244-.095.735-.586.307-.352.343-.289.095-.194.05-.1.095-.05.293-.292.343-.785.343-.78v-.244l.05-.194.094-.393.1-.88-.1-1.028-.243-.88-.389-.88-.541-.735-.732-.735-.834-.587-1.03-.586-1.173-.487-4.947-1.128-5.037-.149zM248.195 34.61l-8.075 17.672h16.294l-8.219-17.671zm339.115-4.556h-7.728v17.333h7.583l.204-.05h1.656l.88-.1.88-.049 1.621-.194.334-.1.397-.049.785-.099.628-.194.686-.144 1.223-.393 1.034-.487.442-.293.483-.244.343-.392.389-.343.686-.686.537-.78.248-.393.289-.343v-.148l.054-.1.094-.194.195-.392v-.15l.054-.098.094-.194.14-.393.15-.88v-.248l.044-.193.055-.393-.095-1.028-.149-.93-.334-.88-.397-.834-3.033-2.887-1.174-.637-1.223-.441-1.323-.443-1.322-.243-5.43-.294zm-211.495 0h-7.194V41.95h7.484l4.648-.781.208-.153.244-.1.492-.194.388-.293.199-.149.244-.094.144-.194.194-.145.393-.293.148-.194.195-.149.343-.289.194-.392.095-.194.05-.095.099-.049.392-.785.095-.442.095-.393v-.243l.05-.199.05-.392-.096-.88-.243-.78-.393-.785-.537-.686-.736-.636-.78-.492-.93-.442-.985-.343-4.55-.64z"/></svg>