<svg xmlns="http://www.w3.org/2000/svg" width="148" height="45" viewBox="0 0 148 45"><g fill="none" fill-rule="evenodd"><path fill="#394791" fill-rule="nonzero" d="M9.2 20.5c-.1-1.4-1.1-2.2-2.8-2.2-1.5 0-2.4.6-2.4 1.7 0 1.3 1.6 1.4 4.5 2.2 2.6.7 4.3 1.8 4.3 4.2 0 3.5-3.1 4.8-6.1 4.8-4 0-6.4-1.9-6.4-5.3h3.2c.1 2 1.4 2.8 3.3 2.8 1.7 0 2.7-.7 2.7-2 0-1.2-1-1.4-4.1-2.2C3 23.8.7 23.2.7 20.2c0-2.7 2.2-4.4 5.7-4.4 3.1 0 5.6 1.4 5.7 4.7H9.2zm10.4 10.7c-3.3 0-5.5-2.2-5.5-5.5 0-3.5 2.2-5.8 5.5-5.8 2.9 0 4.8 1.6 5 4.1h-2.9c-.2-1.2-1-1.8-2.1-1.8-1.6 0-2.6 1.3-2.6 3.5 0 2.1.9 3.4 2.5 3.4 1.3 0 2.1-.7 2.3-2.2h2.8c-.3 2.6-2.2 4.3-5 4.3zm9.7-9.6c.9-1.1 1.9-1.7 3.4-1.7 2.6 0 3.8 1.5 3.8 4v7h-3v-6.3c0-1.3-.3-2.3-1.9-2.3-2 0-2.3 1.5-2.3 3.1v5.5h-2.9V16.1h2.9v5.5zm16.4 9.3c-.1-.4-.2-.6-.2-1-.9.9-2.2 1.4-3.5 1.4-2.4 0-3.8-1.2-3.8-3.2 0-2.8 2.6-3.1 4.7-3.4 1.9-.2 2.6-.4 2.6-1.3 0-1-.6-1.4-1.9-1.4-1.4 0-1.9.4-2.1 1.6h-2.8c.2-2.4 1.9-3.6 5-3.6 2.2 0 4.7.5 4.7 3.5V28c0 1 0 2 .4 2.9h-3.1zm-2.3-4.7c-1 .2-2.2.3-2.2 1.6 0 .9.6 1.4 1.6 1.4 1.5 0 2.6-.9 2.6-2.4v-1.2c-.6.5-1.2.5-2 .6zm17.3 4.7h-2.8v-1.5c-.8 1.2-2 1.8-3.5 1.8-2.3 0-3.7-1.3-3.7-3.8v-7.2h3v6.1c0 1.4.1 2.4 1.8 2.4 1.8 0 2.3-1.4 2.3-3v-5.5h2.9v10.7zm5.2-9.4c.9-1.1 2-1.6 3.4-1.6 3 0 4.6 2.5 4.6 5.5 0 3.4-1.9 5.8-4.8 5.8-1.4 0-2.6-.5-3.4-1.6V31H63V16.1h2.9v5.4zm-.1 4c0 2.1 1 3.3 2.6 3.3 1.5 0 2.5-1.3 2.5-3.4 0-2-1-3.3-2.5-3.3-1.6.1-2.6 1.3-2.6 3.4zm26.5 5.4H81.8V16.1H85v12h7.2v2.8h.1zm21.2-8.2c-.5-.1-.8-.1-1.1-.1-2 0-2.8 1.5-2.8 3.4v4.9h-3V20.2h2.8v2c.7-1.4 1.9-2.2 3.5-2.2.2 0 .4 0 .6.1v2.6zm5.8 8.5c-3.3 0-5.5-2.2-5.5-5.6 0-3.3 2.3-5.7 5.4-5.7 3.2 0 5.3 2.4 5.3 6.1v.3h-7.7c0 1.8.9 2.8 2.5 2.8 1.1 0 1.7-.5 2.2-1.6h2.8c-.7 2.4-2.6 3.7-5 3.7zm-.1-9.2c-1.3 0-2.2.9-2.4 2.4h4.7c-.2-1.3-.9-2.4-2.3-2.4zm14.1 8.9v-6.3c0-1.3-.2-2.3-1.8-2.3-1.8 0-2.3 1.3-2.3 2.8v5.8h-2.9V20.2h2.8v1.5c.9-1.1 2-1.8 3.6-1.8 2.3 0 3.7 1.4 3.7 3.8v7.2h-3.1zm14-8.6l-5.7 6.3h6v2.3h-9.9v-2.2l5.7-6.2h-5.2v-2.3h9.1v2.1z"/><path fill="#FC0204" d="M98.923 16.24c.21-.21.48-.21.69 0 .33.36.42 1.26.42 1.77h.12c.12 0 .24.12.24.24v.12c.27.03.45.15.45.33v.87c2.43.69 4.23 2.91 4.26 5.58 0 3.21-2.61 5.82-5.82 5.82-3.21 0-5.82-2.61-5.82-5.82 0-2.64 1.8-4.89 4.23-5.58v-.87c0-.18.21-.3.45-.33v-.12c0-.12.12-.24.24-.24h.12c0-.51.09-1.41.42-1.77zm2.22 11.04l-.51.54-.72-.12.36.66-.33.66.72-.12.51.54.09-.75.66-.36-.66-.33-.12-.72zm-3.99-4.17l-.84 1.32-1.59.06 1.02 1.23-.42 1.53 1.47-.57 1.32.87-.15-1.56 1.26-.99-1.53-.39-.54-1.5zm4.77-.48l-.51 1.05-1.14.18.84.81-.18 1.14 1.02-.54 1.02.54-.24-1.17.84-.81-1.14-.15-.51-1.05zm-2.85-1.8l-.21.6-.63.15.51.39-.03.66.54-.36.6.27-.18-.63.42-.51-.66-.03-.36-.54zm-.96-4.74c.06 0 .18.03.09.09-1.56.51-1.38 3-4.5 2.43.78-.27.81-.27 1.17-.51-.54.03-1.17-.03-1.62-.3 1.41-.18 1.71-.36 1.98-.57 1.23-1.05 1.47-1.14 2.88-1.14zm2.22 0c1.41 0 1.65.09 2.88 1.14.27.21.57.39 1.98.57-.45.27-1.08.33-1.62.3.36.24.39.24 1.17.51-3.12.57-2.94-1.92-4.5-2.43-.09-.06.03-.09.09-.09zm-.9.33c-.12-.09-.24-.09-.33 0-.27.27-.33 1.05-.33 1.59h1.02c-.03-.54-.09-1.32-.36-1.59zm-7.26-5.52c.75-3 5.07 2.4 5.76 3.72.12.21.33.72.33.9-.03.24-.12.3-.21.33-.57.12-7.2.18-5.88-4.95zm8.37 3.69c.69-1.29 4.98-6.72 5.76-3.72 1.32 5.13-5.31 5.07-5.85 4.95-.09-.03-.21-.09-.21-.33-.03-.18.18-.69.3-.9zm-1.064.72c.31 0 .495.12.495.24.062.15-.186.24-.495.24-.31 0-.496-.12-.496-.24 0-.15.249-.24.496-.24zm5.294-2.85c-.42-1.74-3.09 1.35-3.63 2.16a1.9 1.9 0 00-.24.33h.03c.12.03.3 0 .42 0 1.29-.06 3.9 0 3.42-2.49zm-7.41 2.16c-.51-.78-3.21-3.9-3.63-2.16-.51 2.49 2.1 2.43 3.39 2.49h.48c-.09-.12-.21-.27-.24-.33zm2.116-.3c.31 0 .495.12.495.24.062.12-.186.24-.495.24-.31 0-.496-.12-.496-.24 0-.15.249-.24.496-.24zm0-.99c.31 0 .495.12.495.24.062.12-.186.24-.495.24-.31 0-.496-.12-.496-.24 0-.15.249-.24.496-.24zm0-1.02c.31 0 .495.09.495.24.062.15-.186.24-.495.24-.31 0-.496-.12-.496-.24 0-.15.249-.24.496-.24zm0-.99c.31 0 .495.12.495.24.062.12-.186.24-.495.24-.31 0-.496-.12-.496-.24 0-.15.249-.24.496-.24zm0-1.02c.31 0 .495.09.495.24.062.15-.186.24-.495.24-.31 0-.496-.12-.496-.24 0-.15.249-.24.496-.24z"/><path fill="#9B9B9B" fill-rule="nonzero" d="M1.8 1.1L4.5 8 7 1.1h1.5v8.1h-1V2.5L5 9.3H4L1.4 2.5v6.8h-1V1.1h1.4zm17.9 8.1h-1.2l-.9-2.5h-3.4l-.9 2.5h-1.1l3.2-8.1h1.2l3.1 8.1zm-3.8-7.1l-1.4 3.7h2.8l-1.4-3.7zm7.4 7.1V1.1h5.3V2h-4.3v7.2h-1zm14.4 0h-1.2l-.9-2.5h-3.4l-.9 2.5h-1.1l3.2-8.1h1.2l3.1 8.1zm-3.8-7.1l-1.4 3.7h2.8l-1.4-3.7zm10.3 7.3c-1.9 0-3.4-.9-3.4-2.9h1c0 1.5 1.1 2 2.4 2 1.1 0 2-.7 2-1.7 0-1.2-1-1.4-2-1.4h-.7v-.9h.7c1 0 1.8-.4 1.8-1.5 0-1-.8-1.3-1.7-1.3-1.2 0-1.9.5-2 1.6h-1c.1-1.7 1.4-2.5 3.1-2.5 1.6 0 2.8.7 2.8 2.2 0 .9-.7 1.6-1.3 1.8 1.1.2 1.6 1.1 1.6 1.9-.1 1.1-1 2.7-3.3 2.7zm7.4-8.3h1.1V8l4-6.9H58v8.1h-1.1V2.3l-4 6.9h-1.3V1.1zM69 9.2h-1V5.4h-4.3v3.8h-1.1V1.1h1.1v3.4H68V1.1h1v8.1zM85.3 2h-2.7v7.2h-1.1V2h-2.7v-.9h6.5V2zm9.4 0h-4.5v2.5h4.2v.9h-4.2v2.8h4.6v.9h-5.7v-8h5.6V2zm7.3 3l2.8 4.2h-1.3l-2.2-3.3L99 9.2h-1.2l2.9-4.2L98 1.1h1.3l2 3.1 2.1-3.1h1.2L102 5zm13.1 4.2H114V5.4h-4.3v3.8h-1.1V1.1h1.1v3.4h4.3V1.1h1.1v8.1zm4.6-8.1h1.1V8l4-6.9h1.4v8.1h-1.1V2.3l-4 6.9h-1.3l-.1-8.1zm14.2 3.3l3.5 4.8H136l-2.9-4.1-1.3 1.3v2.8h-1.1V1.1h1.1v4l4.1-4h1.4l-3.4 3.3zm7.3-3.3h1.1V8l4-6.9h1.4v8.1h-1.1V2.3l-4 6.9h-1.3l-.1-8.1z"/><path fill="#394791" fill-rule="nonzero" d="M118.9 38.2H148v6h-29.1v-6zM0 38.2h29.1v6H0v-6zm32.3 2.1c0-.6.5-1.1 1.3-1.1.6 0 1 .2 1.3.4l-.3.5c-.3-.2-.6-.4-.9-.4-.4 0-.6.2-.6.5 0 .8 2 .4 2 1.7 0 .4-.1.7-.4.9-.3.2-.6.3-1 .3-.3 0-.6-.1-.8-.2-.3-.1-.5-.3-.5-.4l.4-.5c.1.1.3.2.5.3.2.1.4.1.6.1.4 0 .7-.2.7-.5-.3-.6-2.3-.2-2.3-1.6zm6.9 2.2c-.3.4-.9.6-1.4.6-.6 0-1.1-.2-1.5-.5-.4-.4-.6-.8-.6-1.4 0-.6.2-1 .5-1.4.4-.4.8-.6 1.4-.6.7 0 1.2.2 1.5.5l-.3.5c-.3-.3-.6-.4-1.1-.4-.4 0-.7.1-.9.4-.3.3-.4.6-.4 1s.1.7.4 1c.3.2.6.4 1 .4s.8-.2 1.1-.5l.3.4zm.9.6v-5.9h.7v2.5c.3-.3.8-.5 1.2-.5 1 0 1.6.6 1.6 1.7v2.2h-.7V41c0-.8-.4-1.1-1.1-1.1-.4 0-.8.2-1.1.5v2.7h-.6zm4.6-3.5c.4-.2.8-.3 1.3-.3 1 0 1.4.5 1.4 1.5v2.3h-.6v-.5c-.3.4-.7.5-1.2.5-.7 0-1.2-.5-1.2-1.2s.6-1.2 1.4-1.2c.4 0 .7.1.9.2 0-.8-.2-1.2-.9-1.2-.3 0-.7.1-1 .3l-.1-.4zm2.1 2.5v-.5c-.2-.2-.5-.3-.8-.3-.4 0-.8.2-.8.6 0 .4.3.6.7.6.3 0 .6-.1.9-.4zm5.1-2.8v3.8h-.7v-.5c-.3.3-.8.6-1.3.6-.9 0-1.4-.5-1.4-1.6v-2.2h.7v2.1c0 .8.3 1.1 1 1.1.4 0 .8-.2 1.1-.6v-2.7h.6zm1.2-2.1h.7v2.5c.3-.3.7-.4 1.2-.4.6 0 1 .2 1.3.5.3.4.5.8.5 1.4 0 .6-.2 1.1-.6 1.5-.4.4-.9.5-1.5.5s-1.1-.1-1.5-.4v-5.6h-.1zm.7 3.1v1.9c.3.2.6.3.9.3.8 0 1.3-.5 1.3-1.3s-.5-1.3-1.2-1.3c-.4 0-.8.2-1 .4zm4 .8v-.6h2v.6h-2zm3.2-3.9h.7v4.6c0 .5.1.7.4.7.2 0 .3-.1.5-.2l.2.5c-.2.2-.5.3-.9.3-.6 0-.9-.4-.9-1.1v-4.8zm2.2 4c0-.6.2-1 .6-1.4.4-.4.9-.6 1.5-.6s1.1.2 1.4.6c.4.4.6.8.6 1.4 0 .6-.2 1-.6 1.4-.4.4-.9.6-1.4.6-.5 0-1.1-.2-1.5-.6-.4-.4-.6-.8-.6-1.4zm1.1 1c.2.3.6.4.9.4.8 0 1.3-.5 1.3-1.3 0-.4-.1-.7-.4-1-.2-.3-.6-.4-.9-.4-.4 0-.7.1-.9.4-.2.2-.4.6-.4 1s.2.6.4.9zm3.9.9v-3.8h.7v.4c.2-.3.5-.5.9-.5.3 0 .5.1.6.1l-.2.7c-.2-.1-.3-.1-.5-.1-.3 0-.6.2-.8.5v2.7h-.7zm6-.4c-.4.3-.8.5-1.4.5-.6 0-1.1-.2-1.5-.5-.4-.4-.6-.8-.6-1.4 0-.6.2-1 .5-1.4.3-.4.8-.6 1.4-.6.5 0 .9.2 1.2.5.3.3.5.7.5 1.2v.5h-2.9c.1.7.6 1.1 1.3 1.1.5 0 .9-.1 1.2-.4l.3.5zm-2.7-1.8h2.3c0-.6-.4-1-1.1-1-.7 0-1.1.4-1.2 1zm3.9 2.2v-3.8h.7v.5c.3-.3.8-.5 1.2-.5 1 0 1.6.6 1.6 1.7v2.2h-.7V41c0-.8-.4-1.2-1.1-1.2-.4 0-.8.2-1.1.5V43l-.6.1zm4.5-3.2v-.6h3.2v.5l-2.4 2.7H83v.6h-3.3v-.5l2.4-2.7h-2.2zm4.1 1.2v-.6h2v.6h-2zm3.2 2v-3.8h.7v.4c.2-.3.5-.5.9-.5.3 0 .5.1.6.1l-.2.7c-.2-.1-.3-.1-.5-.1-.3 0-.6.2-.8.5v2.7h-.7zm6.2-3.8v3.8h-.7v-.5c-.3.3-.8.6-1.3.6-.9 0-1.4-.5-1.4-1.6v-2.2h.7v2.1c0 .8.3 1.1 1 1.1.4 0 .8-.2 1.1-.6v-2.7h.6zm1.1 1c0-.6.5-1.1 1.3-1.1.6 0 1 .2 1.3.4l-.3.5c-.3-.2-.6-.4-.9-.4-.4 0-.6.2-.6.5 0 .8 2 .4 2 1.7 0 .4-.1.7-.4.9-.3.2-.6.3-1 .3-.3 0-.6-.1-.8-.2-.3-.1-.5-.3-.5-.4l.4-.5c.1.1.3.2.5.3.2.1.4.1.6.1.4 0 .7-.2.7-.5-.3-.6-2.3-.2-2.3-1.6zm3.6 0c0-.6.5-1.1 1.3-1.1.6 0 1 .2 1.3.4l-.3.5c-.3-.2-.6-.4-.9-.4-.4 0-.6.2-.6.5 0 .8 2 .4 2 1.7 0 .4-.1.7-.4.9-.3.2-.6.3-1 .3-.3 0-.6-.1-.8-.2-.3-.1-.5-.3-.5-.4l.4-.5c.1.1.3.2.5.3.2.1.4.1.6.1.4 0 .7-.2.7-.5-.3-.6-2.3-.2-2.3-1.6zm4.2-2.8c.2 0 .4.2.4.4 0 .3-.2.4-.4.4s-.4-.2-.4-.4.2-.4.4-.4zm-.3 5.6v-3.8h.7v3.8h-.7zm2.1-3.5c.4-.2.8-.3 1.3-.3 1 0 1.4.5 1.4 1.5v2.3h-.6v-.5c-.3.4-.7.5-1.2.5-.7 0-1.2-.5-1.2-1.2s.6-1.2 1.4-1.2c.4 0 .7.1.9.2 0-.8-.2-1.2-.9-1.2-.3 0-.7.1-1 .3l-.1-.4zm2 2.5v-.5c-.2-.2-.5-.3-.8-.3-.4 0-.8.2-.8.6 0 .4.3.6.7.6.3 0 .6-.1.9-.4zm2.1.1c.2 0 .4.2.4.4 0 .3-.2.5-.4.5-.3 0-.5-.2-.5-.5 0-.2.2-.4.5-.4zm1.4.9v-3.8h.7v.4c.2-.3.5-.5.9-.5.3 0 .5.1.6.1l-.2.6c-.2-.1-.3-.1-.5-.1-.3 0-.6.2-.8.5V43l-.7.1zm6.2-3.8v3.8h-.7v-.5c-.3.3-.8.6-1.3.6-.9 0-1.4-.5-1.4-1.6v-2.2h.7v2.1c0 .8.3 1.1 1 1.1.4 0 .8-.2 1.1-.6v-2.7h.6z"/></g></svg>